<?xml version="1.0" encoding="UTF-8"?><svg xmlns="http://www.w3.org/2000/svg" viewBox="0 0 580.96 279"><defs><style>.cls-1{mix-blend-mode:multiply;}.cls-2{isolation:isolate;}.cls-3{fill:#1a1a1a;}.cls-3,.cls-4,.cls-5{stroke-width:0px;}.cls-4{fill:#11c5d9;}.cls-5{fill:#ff331f;}</style></defs><g class="cls-2"><g id="Camada_2"><g id="Camada_1-2"><rect class="cls-4" x="32.59" y="140.23" width="79.9" height="54.67" rx="4.56" ry="4.56"/><rect class="cls-4" x="137.71" y="140.23" width="79.9" height="54.67" rx="4.56" ry="4.56"/><path class="cls-3" d="m230.22,166.52c-1.68,0-3.3.23-4.86.66-.15-1.43-.31-2.86-.51-4.27-.51-3.68-1.18-7.29-2.01-10.84-1.04-4.44-2.32-8.77-3.82-12.97-.3-.84-.61-1.68-.93-2.51-.96-2.49-2-4.94-3.11-7.33-.74-1.6-1.52-3.17-2.33-4.72-1.62-3.1-3.37-6.11-5.25-9.01-.94-1.45-1.91-2.88-2.91-4.28-1.5-2.1-3.06-4.14-4.69-6.11-1.09-1.31-2.2-2.6-3.34-3.86-2.28-2.51-4.67-4.91-7.17-7.17-1.25-1.13-2.52-2.23-3.81-3.3-1.3-1.07-2.61-2.1-3.96-3.1-.67-.5-1.35-.99-2.03-1.47-1.37-.96-2.75-1.89-4.16-2.78-4.93-3.12-10.12-5.8-15.53-7.98-1.55-.62-3.11-1.21-4.69-1.75-9.48-3.25-19.56-4.99-30.01-4.99-15.29,0-29.78,3.75-42.76,10.44l.07-.89c.63-8.3-9.66-10.13-19.12-3.24-.16.12-.32.23-.47.35l-.47.36c-2.46-1.6-5.2-3.62-8.09-6.16-10.94-9.61-14.9-18.53-15.31-19.52l-2.1-4.98-9.83,12.73.55,1.61c.59,1.7,4.08,10.72,15.32,21.05,2.19,2.01,4.32,3.75,6.35,5.24l-.62.47c-.16.12-.31.24-.47.36-9.16,7.28-10.14,17.69-1.97,19.29l3.13.61c-13.27,16.59-22.1,37.57-24.48,60.7-1.56-.43-3.18-.66-4.86-.66-11.01,0-19.97,9.9-19.97,22.07s8.96,22.07,19.97,22.07c2.81,0,5.49-.65,7.92-1.81,11.87,44.03,50.89,70.15,97.21,70.15,14.81,0,28.87-2.67,41.53-7.74,1.49-.6,2.96-1.23,4.41-1.89,2.9-1.33,5.72-2.78,8.45-4.36,3.41-1.98,6.68-4.16,9.8-6.53,4.98-3.8,9.57-8.08,13.68-12.84,2.06-2.38,4-4.87,5.81-7.48.45-.65.9-1.31,1.34-1.98,3.06-4.66,5.73-9.66,7.97-14.99,1.28-3.04,2.41-6.19,3.39-9.44.29-.96.56-1.93.83-2.91,2.43,1.16,5.11,1.81,7.92,1.81,11.01,0,19.97-9.9,19.97-22.07s-8.96-22.07-19.97-22.07Zm-87.79-21.56h9.58c-.22.91-.43,1.85-.61,2.81l11.53,7.69-12.61,4.2c0,13.52,3.99,25.17,9.74,30.52h-17.63v-45.21Zm41.53,14.7c0-5.27-.61-10.26-1.69-14.7h29.25c.04.21.08.42.13.63.04.19.08.38.11.57.09.46.17.92.25,1.38.02.09.03.18.05.27.09.55.18,1.1.26,1.66.02.16.05.33.07.49.06.39.11.78.17,1.18.03.21.05.43.08.64.04.35.09.7.13,1.05.03.23.05.46.08.7.01.11.02.22.03.34v17.62c-.03.25-.06.49-.1.74-.02.12-.03.24-.05.37-.05.38-.11.75-.17,1.13,0,0,0,.01,0,.02-.06.38-.13.77-.19,1.15-.02.12-.04.25-.07.37-.05.27-.1.53-.15.8-.03.14-.05.28-.08.41-.05.27-.11.54-.16.81-.02.12-.05.24-.07.37-.08.38-.16.76-.24,1.14,0,.01,0,.02,0,.03-.08.39-.17.78-.26,1.17-.03.12-.06.24-.09.37-.06.27-.13.54-.19.82-.03.14-.07.27-.1.41-.07.27-.14.54-.2.81-.03.12-.06.24-.09.37-.1.38-.2.76-.3,1.14,0,0,0,.02,0,.03-.1.39-.21.78-.32,1.16-.03.11-.06.23-.1.34-.08.28-.16.55-.24.83-.04.13-.07.26-.11.38-.08.28-.16.55-.25.83-.03.11-.07.23-.1.34-.23.77-.47,1.53-.72,2.29-.01.03-.02.06-.03.09h-34.26c5.75-5.35,9.74-17,9.74-30.52Zm-87.43-70.19c5.93,9,16.5,14.99,28.56,14.99h0c.43,0,.86,0,1.28-.03.13,0,.27-.01.4-.02.3-.01.6-.03.89-.05.15-.01.3-.02.44-.03.3-.03.6-.05.9-.09.13-.01.25-.03.38-.04.42-.05.83-.11,1.24-.17.04,0,.09-.02.13-.02.37-.06.74-.12,1.1-.2.13-.03.26-.05.4-.08.28-.06.56-.12.84-.18.14-.03.28-.07.42-.1.29-.07.58-.15.86-.22.11-.03.23-.06.34-.09.39-.11.78-.23,1.17-.35.07-.02.13-.04.19-.07.32-.11.64-.22.96-.33.13-.05.25-.09.38-.14.26-.1.52-.2.78-.3.13-.05.26-.1.39-.16.27-.11.55-.23.82-.35.1-.04.2-.09.3-.13.36-.17.72-.34,1.08-.51.08-.04.15-.08.23-.12.28-.14.56-.29.84-.44.12-.06.23-.13.35-.2.24-.13.47-.27.71-.41.12-.07.23-.14.35-.21.26-.16.51-.32.77-.48.08-.05.16-.1.24-.16.33-.22.65-.44.97-.66.08-.06.16-.11.24-.17.24-.17.48-.35.72-.53.11-.08.21-.16.32-.25.21-.17.42-.33.63-.5.1-.08.2-.17.31-.25.24-.2.47-.4.7-.61.06-.05.12-.11.18-.16.29-.26.57-.53.85-.8.08-.07.15-.15.22-.22.2-.2.41-.41.61-.61.09-.1.18-.19.28-.29.18-.2.36-.39.54-.59.08-.1.17-.19.25-.29.22-.25.43-.5.64-.75.04-.05.08-.09.11-.14.24-.3.48-.61.71-.92.07-.09.13-.18.19-.27.17-.23.33-.46.49-.69.08-.11.15-.22.22-.33.06-.09.13-.18.19-.28,2.8-4.25,8.63-5.69,13.32-3.38.14.07.28.14.43.21.19.1.38.2.58.3.27.14.53.28.8.42.19.1.38.2.57.3.27.15.53.29.8.44.18.1.36.2.54.3.28.16.56.32.84.48.16.09.32.19.48.28.34.2.67.4,1.01.6.1.06.2.12.3.18.43.27.86.54,1.29.81.11.07.22.14.32.21.32.21.64.41.95.62.16.1.31.21.47.32.27.18.53.36.79.54.17.12.34.24.5.35.25.18.5.35.74.53.17.12.34.25.51.37.24.18.48.36.72.53.17.13.34.25.51.38.24.18.48.37.71.55.17.13.33.26.5.39.24.19.48.38.72.58.16.13.31.25.47.38.26.21.51.43.77.64.13.11.27.22.4.33.33.28.66.57.99.86.05.05.1.09.16.14.38.34.76.68,1.13,1.02.11.1.22.2.33.3.26.24.53.49.79.74.14.13.27.27.41.4.23.22.46.44.68.66.15.15.29.29.44.44.21.21.43.43.64.65.15.15.3.31.44.46.21.22.41.43.62.65.15.15.29.31.43.47.21.22.41.45.61.67.14.15.28.31.42.46.21.23.41.47.62.71.13.15.26.3.39.45.23.26.45.53.67.8.1.12.21.25.31.37.33.39.65.79.97,1.19,0,0,.01.02.02.02.31.39.62.79.92,1.18.1.13.2.27.3.4.21.27.41.55.62.83.12.16.23.32.35.48.19.25.37.51.55.77.12.17.24.35.36.52.17.25.35.5.52.75.12.18.24.36.36.54.17.25.33.5.5.76.12.18.24.36.35.54.17.26.33.52.49.78.11.18.22.35.33.53.17.27.34.55.5.83.1.17.2.33.3.5.19.32.37.63.55.95.08.13.15.26.23.39.26.45.51.9.76,1.36.04.08.08.16.12.23.2.38.41.76.61,1.15.08.16.16.32.25.48.16.3.31.61.46.92.09.18.18.37.27.56.14.29.28.57.41.86.09.2.18.39.28.59.13.28.26.56.39.85.09.2.18.4.27.6.13.28.25.57.37.86.09.2.17.4.26.61.12.29.24.59.36.88.08.2.16.39.24.59.12.31.25.63.37.94.07.18.14.36.21.55.14.38.28.76.42,1.14.04.12.09.24.13.36.18.5.35,1.01.52,1.52.04.13.08.25.12.38.08.24.16.49.24.73h-30.23c-2.71-5.25-6.29-8.69-10.28-9.36,3.2-2.31,6.47-4.24,9.33-5.76,4.17-2.22,5-7.84,1.66-11.18l-2.58-2.58c-1.98-1.98-4.94-2.59-7.54-1.58-13.26,5.17-22.58,19.89-26.69,27.53-.5.93-.77,1.93-.82,2.94-4.96.18-8.95,4.26-8.95,9.26v5.96h-15.78v-5.96c0-5-3.98-9.09-8.95-9.26-.06-1.01-.32-2.01-.82-2.94-4.1-7.65-13.42-22.36-26.69-27.53-2.61-1.02-5.57-.4-7.54,1.58l-2.58,2.58c-3.34,3.34-2.51,8.96,1.66,11.18,2.86,1.52,6.12,3.45,9.32,5.76-3.98.67-7.56,4.12-10.27,9.37h-30.23c7.06-22.11,22.27-39.46,42.02-49.39,4.7-2.36,10.59-.92,13.4,3.35Zm-59.22,81.98v-17.6c.31-3.03.76-5.99,1.35-8.89h29.26c-.22.91-.43,1.85-.61,2.81l11.53,7.69-12.62,4.2c0,13.52,3.99,25.17,9.74,30.52h-34.26c-1.97-6.08-3.61-12.57-4.4-18.73Zm62.56-11.79c0-5.27-.61-10.26-1.69-14.7h9.58v45.21h-17.63c5.75-5.35,9.74-17,9.74-30.52Zm-79.9,44.71c-7.54,0-13.67-7.08-13.67-15.77s6.13-15.77,13.67-15.77c1.53,0,2.99.29,4.36.83-.1,2.05-.16,4.1-.16,6.18,0,1.28.03,2.56.07,3.82-2.49-1.75-5.64-2.58-8.48-1.36,3.16,1.74,5.69,4.18,7.67,7.09.47.69.91,1.42,1.31,2.17.37,3.76.93,7.42,1.65,10.97-1.92,1.18-4.11,1.86-6.43,1.86Zm148.19,25.84c-3.99,3.62-9.41,5.35-14.76,5.26-1.04,2.1-2.57,3.94-4.36,5.39-6.72,5.35-16.15,6.25-23.91,2.85-4.2,1.88-8.8,2.41-13.34,1.77-6.02-.83-12.23-4.29-15.06-9.84-4.15.08-8.3-.92-11.88-3.03-3.03-1.81-5.68-4.51-6.86-7.91-1.84-4.99.33-10.47,4.88-12.98-3.75,4.55-3.65,10.44,1.25,13.95,4.08,2.89,9.69,3.42,14.39,2.08l3.06-.91,1.49,3.64c3.09,6.75,13.83,7.58,19.62,4.01l2.48-1.48,2.37,1.48c3.19,1.98,7.48,2.53,11.21,1.85,3.46-.62,7.13-2.49,8.56-5.82l1.41-3.48,2.95.86c5.52,1.57,12.3.74,16.37-3.6,2.66-2.86,3.05-6.9,1.17-10.61,2.09,1.8,3.37,4.67,3.32,7.49-.03,3.46-1.86,6.7-4.36,9.03Zm36.53-29.72c-.03.08-.06.16-.1.24-.12.28-.23.55-.35.83-.02.05-.05.11-.07.16-.14.33-.28.66-.42.98-1.94,4.46-7.1,6.86-12.04,5.62-15.47-3.88-32.27-6.45-49.93-7.45-.99,7.3-8.09,12.96-16.7,12.96s-15.71-5.66-16.7-12.96c-17.65,1-34.46,3.57-49.93,7.45-4.94,1.24-10.1-1.16-12.04-5.62-.43-.98-.85-2.01-1.28-3.06h62.77c5.12,0,9.28-4.16,9.28-9.28v-26.99h15.78v26.99c0,5.12,4.16,9.28,9.28,9.28h62.77s0,.02-.01.03c-.11.28-.23.55-.34.83Zm25.53,3.88c-2.32,0-4.51-.67-6.42-1.85,1.04-5.12,1.73-10.46,2.03-16.01,2.69-1.61,5.79-2.78,8.6-4.22-2.64-1.27-5.64-1.44-8.44-.69,0-.59.03-1.17.03-1.77,0-.96-.01-1.91-.03-2.87-.03-1.11-.07-2.21-.12-3.31,1.37-.53,2.84-.83,4.36-.83,7.54,0,13.67,7.08,13.67,15.77s-6.13,15.77-13.67,15.77Z"/><g class="cls-1"><path class="cls-5" d="m31.79,73.67c-11.96-.19-22.83-9.13-26.23-20.85-3.64-12.53,1.79-26.4,13.45-33.63,4.44,14.34,7.04,21.41,7.79,21.22,1.01-.26,5.46-13.94-.21-40.41,28.68,8.65,37.39,31.7,33.61,49.22-2.38,11.03-13.4,24.69-28.42,24.46Z"/></g><path class="cls-3" d="m297.2,154.52c0-11.7,2.07-21.7,6.2-30.01,3.38-6.79,7.98-12.55,13.77-17.32v28.62h-15.26l-2.07,14.92h17.33v10.9h19.05v-71.03h-56.91v16.52h20.46c-1.96,1.61-3.88,3.44-5.77,5.51-4.82,5.28-8.72,11.7-11.7,19.28-2.98,7.57-4.48,15.68-4.48,24.33,0,1.76.11,3.56.34,5.39h19.28c-.15-3.21-.23-5.58-.23-7.11Z"/><path class="cls-3" d="m370.23,158.59c5.24,3.1,11.34,4.65,18.3,4.65,3.67,0,7.3-.42,10.9-1.26l-.92-16.64c-2.45.61-4.74.92-6.88.92-5.74,0-10.25-1.7-13.54-5.11-3.29-3.4-4.93-8.13-4.93-14.17,0-6.81,1.7-11.84,5.11-15.09,3.4-3.25,7.94-4.88,13.6-4.88,2.22,0,4.17.23,5.85.69l1.49-16.64c-3.06-.76-6.31-1.15-9.75-1.15-8.03,0-14.73,1.78-20.08,5.34-5.36,3.56-9.28,8.11-11.76,13.65-2.49,5.55-3.73,11.42-3.73,17.61,0,7.19,1.41,13.56,4.25,19.11,2.83,5.55,6.87,9.87,12.11,12.97Z"/><path class="cls-3" d="m426.05,135.82l-2.06,14.92h17.33v10.9h19.05v-71.03h-56.91v16.52h20.46c-1.96,1.61-3.88,3.44-5.77,5.51-4.82,5.28-8.72,11.7-11.7,19.28-2.98,7.57-4.48,15.68-4.48,24.33,0,1.76.11,3.56.34,5.39h19.28c-.15-3.21-.23-5.58-.23-7.11,0-11.7,2.07-21.7,6.2-30.01,3.38-6.79,7.98-12.55,13.77-17.32v28.62h-15.26Z"/><path class="cls-3" d="m514.12,125.14c2.94-3.98,4.42-8.49,4.42-13.54s-1.03-9.08-3.1-12.11c-2.07-3.02-5.38-5.24-9.93-6.66-4.55-1.41-10.69-2.12-18.42-2.12h-21.69v70.91h19.05v-56h2.52c4.59,0,7.8.79,9.64,2.35,1.84,1.57,2.75,4.04,2.75,7.4s-.99,5.89-2.98,8.03c-1.99,2.14-4.93,3.52-8.84,4.13v15.26c3.67,5.13,8.24,9.62,13.71,13.48,5.47,3.86,10.5,5.79,15.09,5.79l2.18-18.24c-2.68-.69-5.32-1.72-7.92-3.1-2.6-1.38-5.55-3.37-8.84-5.97,5.28-2.45,9.39-5.66,12.34-9.64Z"/><path class="cls-3" d="m524.05,90.61v16.52h20.46c-1.96,1.61-3.88,3.44-5.77,5.51-4.82,5.28-8.72,11.7-11.7,19.28-2.98,7.57-4.48,15.68-4.48,24.33,0,1.76.11,3.56.34,5.39h19.28c-.15-3.21-.23-5.58-.23-7.11,0-11.7,2.07-21.7,6.2-30.01,3.38-6.79,7.98-12.55,13.77-17.32v28.62h-15.26l-2.07,14.92h17.33v10.9h19.05v-71.03h-56.91Z"/><path class="cls-3" d="m328.29,193.07c-7.11-5.32-16.06-7.97-26.85-7.97h-22.72v70.91h22.61c7.73,0,14.42-1.45,20.08-4.36,5.66-2.91,10-7.09,13.02-12.56,3.02-5.47,4.53-11.95,4.53-19.45,0-12.39-3.56-21.25-10.67-26.56Zm-12.85,42.46c-2.83,3.56-6.89,5.34-12.16,5.34h-5.51v-40.85h5.85c5.81,0,9.94,1.72,12.39,5.16,2.45,3.44,3.67,8.3,3.67,14.57,0,6.96-1.42,12.22-4.25,15.78Z"/><path class="cls-3" d="m394.1,187.27c-5.24-2.37-10.96-3.56-17.15-3.56-6.88,0-12.89,1.49-18.02,4.48-5.13,2.98-9.08,7.25-11.88,12.79-2.79,5.55-4.19,12.07-4.19,19.56,0,8.65,1.64,15.68,4.93,21.11,3.29,5.43,7.55,9.35,12.79,11.76,5.24,2.41,10.96,3.61,17.15,3.61,6.81,0,12.79-1.49,17.96-4.47,5.16-2.98,9.14-7.27,11.93-12.85,2.79-5.58,4.19-12.12,4.19-19.62,0-8.64-1.65-15.68-4.93-21.11-3.29-5.43-7.56-9.33-12.79-11.7Zm-5.34,47.62c-2.52,3.44-6.35,5.16-11.47,5.16s-8.84-1.76-11.36-5.28c-2.52-3.52-3.79-8.41-3.79-14.69s1.26-10.79,3.79-14.23c2.52-3.44,6.35-5.16,11.47-5.16,3.37,0,6.18.82,8.43,2.47,2.26,1.65,3.94,3.94,5.05,6.88,1.11,2.95,1.66,6.48,1.66,10.61,0,6.04-1.26,10.79-3.79,14.23Z"/><path class="cls-3" d="m435.69,232.83c0,2.91-.56,4.92-1.66,6.02-1.11,1.11-2.77,1.66-4.99,1.66-.84,0-1.84-.23-2.98-.69l.12,16.07c2.37.84,5.12,1.26,8.26,1.26,4.67,0,8.45-.73,11.36-2.18,2.91-1.45,5.12-3.96,6.66-7.52,1.53-3.56,2.29-8.51,2.29-14.86v-47.5h-19.05v47.73Z"/><path class="cls-3" d="m498.57,226.63c0,5.36-.86,8.99-2.58,10.9-1.72,1.91-4.23,2.87-7.52,2.87s-5.85-1.15-7.46-3.44c-1.61-2.29-2.41-5.78-2.41-10.44v-41.42h-18.82v42.46c0,8.57,2.12,15.68,6.37,21.34,4.25,5.66,11.34,8.49,21.29,8.49,11.32,0,19.18-2.81,23.58-8.43,4.4-5.62,6.6-13.21,6.6-22.78v-41.08h-19.05v41.54Z"/></g></g></g></svg>