<?xml version="1.0" encoding="UTF-8"?><svg xmlns="http://www.w3.org/2000/svg" viewBox="0 0 308.1 478.55"><defs><style>.cls-1{mix-blend-mode:multiply;}.cls-2{isolation:isolate;}.cls-3{fill:#1a1a1a;}.cls-3,.cls-4,.cls-5{stroke-width:0px;}.cls-4{fill:#11c5d9;}.cls-5{fill:#ff331f;}</style></defs><g class="cls-2"><g id="Camada_2"><g id="Camada_1-2"><rect class="cls-4" x="60.03" y="142.52" width="81.2" height="55.56" rx="4.63" ry="4.63"/><rect class="cls-4" x="166.87" y="142.52" width="81.2" height="55.56" rx="4.63" ry="4.63"/><path class="cls-3" d="m260.89,169.23c-1.7,0-3.36.24-4.94.67-.15-1.46-.32-2.91-.52-4.34-.52-3.74-1.2-7.41-2.05-11.02-1.05-4.51-2.35-8.91-3.89-13.18-.31-.85-.62-1.7-.95-2.55-.97-2.53-2.03-5.02-3.16-7.45-.76-1.62-1.54-3.22-2.37-4.8-1.65-3.15-3.43-6.21-5.33-9.16-.95-1.48-1.94-2.92-2.95-4.35-1.52-2.13-3.11-4.2-4.77-6.21-1.1-1.34-2.24-2.64-3.4-3.92-2.32-2.55-4.75-4.99-7.28-7.29-1.27-1.15-2.56-2.27-3.87-3.35-1.32-1.08-2.66-2.13-4.02-3.15-.68-.51-1.37-1.01-2.06-1.49-1.39-.98-2.8-1.92-4.23-2.83-5.01-3.17-10.29-5.89-15.79-8.11-1.57-.63-3.16-1.23-4.77-1.77-9.63-3.3-19.88-5.08-30.5-5.08-15.54,0-30.26,3.81-43.46,10.61l.07-.91c.64-8.43-9.82-10.3-19.43-3.29-.16.12-.32.24-.48.36l-.48.36c-2.5-1.63-5.29-3.68-8.22-6.26-11.12-9.76-15.14-18.83-15.56-19.84l-2.13-5.06-9.99,12.94.56,1.63c.6,1.73,4.15,10.89,15.57,21.39,2.22,2.04,4.39,3.81,6.45,5.33l-.63.48c-.16.12-.32.24-.47.37-9.31,7.39-10.3,17.98-2,19.6l3.18.62c-13.48,16.86-22.46,38.18-24.88,61.69-1.58-.44-3.24-.67-4.94-.67-11.19,0-20.3,10.06-20.3,22.43s9.1,22.43,20.3,22.43c2.86,0,5.58-.66,8.05-1.84,12.07,44.74,51.72,71.29,98.79,71.29,15.05,0,29.34-2.71,42.21-7.87,1.51-.61,3.01-1.25,4.48-1.92,2.95-1.35,5.81-2.83,8.59-4.44,3.47-2.01,6.79-4.23,9.96-6.64,5.07-3.86,9.72-8.22,13.9-13.05,2.09-2.42,4.06-4.95,5.9-7.6.46-.66.91-1.33,1.36-2.01,3.11-4.73,5.83-9.82,8.1-15.23,1.3-3.09,2.45-6.29,3.45-9.6.29-.97.57-1.96.84-2.95,2.47,1.18,5.19,1.84,8.05,1.84,11.19,0,20.3-10.06,20.3-22.43s-9.1-22.43-20.3-22.43Zm-89.22-21.91h9.74c-.23.93-.43,1.88-.62,2.85l11.72,7.81-12.82,4.27c0,13.74,4.06,25.58,9.9,31.02h-17.92v-45.95Zm42.21,14.94c0-5.36-.62-10.42-1.71-14.94h29.73c.04.21.09.43.13.64.04.19.08.39.11.58.09.46.17.93.25,1.4.02.09.03.18.05.27.09.56.18,1.12.27,1.68.03.17.05.33.07.5.06.4.12.8.17,1.2.03.22.05.43.08.65.04.35.09.71.13,1.06.03.24.05.47.08.71.01.11.02.23.04.34v17.9c-.03.25-.07.5-.1.75-.02.12-.03.25-.05.37-.06.38-.11.76-.17,1.15,0,0,0,.01,0,.02-.06.39-.13.78-.2,1.17-.02.13-.05.25-.07.38-.05.27-.1.54-.15.82-.03.14-.05.28-.08.42-.05.27-.11.55-.16.82-.03.12-.05.25-.08.37-.08.38-.16.77-.24,1.15,0,.01,0,.02,0,.03-.09.4-.18.79-.27,1.19-.03.12-.06.25-.09.37-.07.28-.13.55-.2.83-.03.14-.07.28-.1.42-.07.28-.14.55-.21.83-.03.12-.06.25-.09.37-.1.39-.2.77-.3,1.15,0,0,0,.02,0,.03-.11.4-.21.79-.32,1.18-.03.12-.07.23-.1.35-.08.28-.16.56-.24.84-.04.13-.08.26-.11.39-.08.28-.17.56-.25.84-.03.11-.07.23-.1.34-.24.78-.48,1.56-.73,2.33-.01.03-.02.06-.03.1h-34.82c5.85-5.43,9.9-17.27,9.9-31.02Zm-88.86-71.34c6.03,9.14,16.77,15.23,29.03,15.23h0c.44,0,.87-.01,1.31-.03.14,0,.27-.01.41-.02.3-.01.61-.03.91-.05.15-.01.3-.02.45-.04.31-.03.61-.06.91-.09.13-.01.26-.03.38-.04.42-.05.85-.11,1.26-.17.05,0,.09-.02.13-.02.38-.06.75-.13,1.12-.2.13-.03.27-.05.4-.08.29-.06.57-.12.85-.19.14-.03.28-.07.43-.1.29-.07.59-.15.88-.23.11-.03.23-.06.34-.09.4-.11.8-.23,1.19-.36.07-.02.13-.04.2-.07.33-.11.65-.22.98-.33.13-.05.26-.1.39-.14.26-.1.53-.2.79-.3.13-.05.26-.11.39-.16.28-.12.56-.24.83-.36.1-.04.2-.09.3-.13.37-.17.73-.34,1.1-.52.08-.04.15-.08.23-.12.29-.15.57-.29.85-.45.12-.07.24-.13.36-.2.24-.14.48-.27.72-.41.12-.07.24-.14.35-.21.26-.16.52-.32.78-.49.08-.05.17-.1.25-.16.33-.22.66-.44.99-.67.08-.06.16-.12.24-.17.25-.18.49-.36.73-.54.11-.08.22-.17.32-.25.22-.17.43-.34.64-.51.1-.09.21-.17.31-.26.24-.2.48-.41.72-.62.06-.05.12-.11.19-.16.29-.26.58-.54.86-.81.08-.07.15-.15.23-.23.21-.21.41-.41.61-.62.09-.1.19-.2.28-.3.19-.2.37-.4.55-.6.09-.1.17-.19.26-.29.22-.25.43-.51.65-.77.04-.05.08-.09.12-.14.25-.31.49-.62.72-.93.07-.09.13-.18.2-.27.17-.23.34-.46.5-.7.08-.11.15-.22.23-.33.06-.09.13-.19.19-.28,2.85-4.32,8.77-5.78,13.54-3.43.14.07.29.14.43.22.2.1.39.2.58.3.27.14.54.28.81.43.19.1.38.2.58.31.27.15.54.3.81.45.18.1.37.2.55.31.29.16.57.33.85.49.16.1.33.19.49.28.34.2.68.41,1.02.61.1.06.21.12.31.19.44.27.88.55,1.31.82.11.07.22.14.33.21.32.21.65.42.97.63.16.11.32.21.47.32.27.18.54.37.81.55.17.12.34.24.51.36.25.18.51.36.76.54.17.13.35.25.52.38.25.18.49.36.73.54.17.13.34.26.52.39.24.18.49.37.73.56.17.13.34.26.5.39.25.19.49.39.73.59.16.13.32.26.48.38.26.22.52.43.78.65.13.11.27.23.4.34.34.29.68.58,1.01.88.05.05.11.09.16.14.39.34.77.69,1.15,1.04.11.1.22.21.33.31.27.25.53.5.8.75.14.13.28.27.42.4.23.22.46.45.69.67.15.15.3.3.45.45.22.22.43.44.65.66.15.15.3.31.45.47.21.22.42.44.63.66.15.16.3.32.44.47.21.23.42.45.62.68.14.16.28.31.42.47.21.24.42.48.63.72.13.15.26.3.39.45.23.27.46.54.68.81.11.13.21.25.32.38.33.4.66.8.98,1.21,0,0,.01.02.02.02.32.4.63.8.94,1.2.1.14.21.27.31.41.21.28.42.56.63.84.12.16.24.33.35.49.19.26.38.52.56.78.12.17.25.35.37.53.18.25.35.51.53.76.12.18.25.36.37.55.17.25.34.51.51.77.12.18.24.37.36.55.17.26.34.53.5.79.11.18.23.36.34.54.17.28.34.56.51.84.1.17.21.34.31.51.19.32.38.64.56.97.08.13.16.27.23.4.26.46.52.92.77,1.38.04.08.08.16.13.24.21.39.41.77.62,1.16.08.16.17.33.25.49.16.31.32.62.47.93.09.19.18.38.28.57.14.29.28.58.42.87.09.2.19.4.28.6.13.29.26.57.39.86.09.2.18.41.27.61.13.29.25.58.38.87.09.2.18.41.26.62.12.3.25.6.37.9.08.2.16.4.24.6.13.32.25.64.37.96.07.19.14.37.21.55.14.38.28.77.42,1.16.04.12.09.25.13.37.18.51.36,1.03.53,1.54.04.13.08.26.13.39.08.25.16.49.24.74h-30.72c-2.75-5.34-6.4-8.83-10.44-9.52,3.26-2.35,6.57-4.31,9.48-5.86,4.24-2.25,5.08-7.97,1.69-11.36l-2.62-2.62c-2.01-2.01-5.02-2.64-7.67-1.6-13.48,5.26-22.95,20.21-27.12,27.98-.51.95-.78,1.97-.84,2.99-5.04.18-9.09,4.33-9.09,9.42v6.06h-16.04v-6.06c0-5.09-4.05-9.23-9.09-9.42-.06-1.02-.33-2.04-.84-2.99-4.17-7.77-13.64-22.72-27.12-27.98-2.65-1.03-5.66-.41-7.67,1.6l-2.62,2.62c-3.39,3.39-2.55,9.11,1.69,11.36,2.9,1.54,6.22,3.51,9.47,5.85-4.05.68-7.69,4.19-10.44,9.52h-30.72c7.17-22.47,22.63-40.1,42.7-50.19,4.78-2.4,10.76-.94,13.62,3.4Zm-60.19,83.32v-17.88c.32-3.08.78-6.09,1.37-9.03h29.73c-.23.93-.43,1.88-.62,2.85l11.72,7.81-12.82,4.27c0,13.74,4.06,25.58,9.9,31.02h-34.82c-2-6.17-3.67-12.77-4.47-19.03Zm63.57-11.98c0-5.36-.62-10.42-1.72-14.94h9.73v45.95h-17.92c5.85-5.43,9.9-17.27,9.9-31.02Zm-81.2,45.44c-7.66,0-13.89-7.19-13.89-16.03s6.23-16.03,13.89-16.03c1.55,0,3.04.3,4.43.84-.1,2.08-.16,4.17-.16,6.28,0,1.31.03,2.6.07,3.88-2.53-1.78-5.73-2.62-8.61-1.38,3.21,1.77,5.78,4.25,7.79,7.2.48.7.92,1.44,1.34,2.2.38,3.82.94,7.54,1.68,11.15-1.95,1.2-4.17,1.89-6.53,1.89Zm150.61,26.26c-4.06,3.68-9.56,5.43-15,5.34-1.05,2.13-2.61,4.01-4.43,5.48-6.83,5.44-16.41,6.36-24.3,2.9-4.26,1.91-8.94,2.45-13.56,1.8-6.12-.84-12.43-4.36-15.3-10.01-4.21.08-8.44-.93-12.08-3.08-3.08-1.84-5.77-4.58-6.97-8.03-1.87-5.07.33-10.64,4.96-13.19-3.81,4.62-3.71,10.61,1.27,14.18,4.14,2.94,9.85,3.48,14.62,2.11l3.11-.92,1.51,3.7c3.14,6.86,14.06,7.7,19.94,4.08l2.52-1.51,2.41,1.51c3.24,2.01,7.61,2.57,11.39,1.88,3.52-.63,7.25-2.53,8.7-5.91l1.44-3.54,3,.87c5.61,1.6,12.5.76,16.64-3.66,2.7-2.9,3.1-7.01,1.19-10.78,2.12,1.83,3.42,4.75,3.37,7.61-.03,3.52-1.89,6.81-4.43,9.18Zm37.12-30.21c-.03.08-.07.16-.1.24-.12.28-.23.56-.35.84-.02.05-.05.11-.07.16-.14.34-.29.67-.43,1-1.97,4.53-7.21,6.98-12.23,5.72-15.72-3.95-32.8-6.56-50.74-7.57-1.01,7.42-8.22,13.18-16.97,13.18s-15.96-5.76-16.97-13.18c-17.94,1.02-35.02,3.63-50.74,7.57-5.02,1.26-10.26-1.18-12.23-5.72-.43-1-.87-2.04-1.3-3.11h63.79c5.2,0,9.43-4.23,9.43-9.43v-27.43h16.04v27.43c0,5.2,4.23,9.43,9.43,9.43h63.8s0,.02-.01.03c-.12.28-.23.56-.35.84Zm25.95,3.94c-2.36,0-4.58-.68-6.53-1.88,1.05-5.2,1.75-10.63,2.06-16.27,2.73-1.64,5.89-2.83,8.74-4.29-2.68-1.29-5.73-1.46-8.57-.7,0-.6.03-1.19.03-1.8,0-.97-.01-1.95-.03-2.91-.03-1.13-.07-2.25-.13-3.36,1.39-.54,2.88-.84,4.43-.84,7.66,0,13.89,7.19,13.89,16.03s-6.23,16.03-13.89,16.03Z"/><g class="cls-1"><path class="cls-5" d="m59.22,74.87c-12.16-.19-23.2-9.28-26.66-21.19-3.69-12.73,1.82-26.83,13.67-34.18,4.52,14.57,7.15,21.76,7.92,21.56,1.02-.26,5.54-14.17-.21-41.07,29.15,8.79,38,32.21,34.16,50.02-2.41,11.21-13.62,25.09-28.88,24.85Z"/></g><path class="cls-3" d="m19.71,374.01c0-11.89,2.1-22.06,6.3-30.5,3.43-6.9,8.11-12.76,13.99-17.6v29.09h-15.51l-2.1,15.16h17.61v11.08h19.36v-72.19H1.52v16.79h20.79c-1.99,1.64-3.95,3.5-5.86,5.6-4.9,5.36-8.86,11.9-11.89,19.59-3.03,7.7-4.55,15.94-4.55,24.72,0,1.79.12,3.61.35,5.48h19.59c-.16-3.27-.23-5.67-.23-7.23Z"/><path class="cls-3" d="m93.93,378.15c5.32,3.15,11.53,4.72,18.6,4.72,3.73,0,7.42-.43,11.08-1.28l-.93-16.91c-2.49.62-4.82.93-7,.93-5.83,0-10.42-1.73-13.76-5.19-3.34-3.46-5.01-8.26-5.01-14.4,0-6.92,1.73-12.03,5.19-15.34,3.46-3.3,8.06-4.96,13.82-4.96,2.25,0,4.24.23,5.95.7l1.52-16.91c-3.11-.78-6.41-1.17-9.91-1.17-8.16,0-14.97,1.81-20.41,5.42-5.44,3.61-9.43,8.24-11.95,13.88-2.53,5.64-3.79,11.6-3.79,17.9,0,7.31,1.44,13.78,4.31,19.42,2.88,5.64,6.98,10.03,12.3,13.18Z"/><path class="cls-3" d="m150.66,355l-2.1,15.16h17.61v11.08h19.36v-72.19h-57.84v16.79h20.79c-1.99,1.64-3.95,3.5-5.86,5.6-4.9,5.36-8.86,11.9-11.89,19.59-3.03,7.7-4.55,15.94-4.55,24.72,0,1.79.12,3.61.35,5.48h19.59c-.16-3.27-.23-5.67-.23-7.23,0-11.89,2.1-22.06,6.3-30.5,3.44-6.9,8.11-12.76,13.99-17.6v29.09h-15.51Z"/><path class="cls-3" d="m240.17,344.15c2.99-4.04,4.49-8.63,4.49-13.76s-1.05-9.23-3.15-12.3c-2.1-3.07-5.46-5.32-10.09-6.76-4.63-1.44-10.87-2.16-18.72-2.16h-22.04v72.07h19.36v-56.91h2.57c4.66,0,7.93.8,9.8,2.39,1.87,1.59,2.8,4.1,2.8,7.52s-1.01,5.99-3.03,8.16c-2.02,2.18-5.01,3.58-8.98,4.2v15.51c3.73,5.21,8.38,9.78,13.94,13.7,5.56,3.93,10.67,5.89,15.34,5.89l2.22-18.54c-2.72-.7-5.4-1.75-8.05-3.15-2.64-1.4-5.64-3.42-8.98-6.06,5.36-2.49,9.54-5.75,12.54-9.8Z"/><path class="cls-3" d="m250.26,309.05v16.79h20.79c-1.99,1.64-3.95,3.5-5.86,5.6-4.9,5.36-8.86,11.9-11.89,19.59-3.03,7.7-4.55,15.94-4.55,24.72,0,1.79.12,3.61.35,5.48h19.59c-.16-3.27-.23-5.67-.23-7.23,0-11.89,2.1-22.06,6.3-30.5,3.43-6.9,8.11-12.76,13.99-17.6v29.09h-15.51l-2.1,15.16h17.61v11.08h19.36v-72.19h-57.84Z"/><path class="cls-3" d="m83.03,413.19c-7.23-5.4-16.33-8.1-27.29-8.1h-23.09v72.07h22.97c7.85,0,14.65-1.48,20.41-4.43,5.75-2.95,10.16-7.21,13.24-12.77,3.07-5.56,4.61-12.15,4.61-19.77,0-12.6-3.62-21.59-10.85-27Zm-13.06,43.15c-2.88,3.61-7,5.42-12.36,5.42h-5.6v-41.52h5.95c5.91,0,10.11,1.75,12.59,5.25,2.49,3.5,3.73,8.44,3.73,14.81,0,7.08-1.44,12.42-4.31,16.03Z"/><path class="cls-3" d="m149.91,407.3c-5.33-2.41-11.14-3.62-17.43-3.62-7,0-13.1,1.52-18.31,4.55-5.21,3.03-9.23,7.37-12.07,13-2.84,5.64-4.26,12.26-4.26,19.88,0,8.79,1.67,15.94,5.01,21.46,3.34,5.52,7.68,9.5,13,11.95,5.32,2.45,11.14,3.67,17.43,3.67,6.92,0,13-1.52,18.25-4.55,5.25-3.03,9.29-7.38,12.13-13.06,2.84-5.67,4.26-12.32,4.26-19.94,0-8.79-1.67-15.94-5.01-21.46-3.34-5.52-7.68-9.48-13-11.89Zm-5.42,48.4c-2.57,3.5-6.45,5.25-11.66,5.25s-8.98-1.79-11.54-5.36c-2.57-3.57-3.85-8.55-3.85-14.93s1.28-10.96,3.85-14.46c2.57-3.5,6.45-5.25,11.66-5.25,3.42,0,6.28.84,8.57,2.51,2.29,1.67,4,4.01,5.13,7,1.13,2.99,1.69,6.59,1.69,10.79,0,6.14-1.28,10.96-3.85,14.46Z"/><path class="cls-3" d="m192.18,453.59c0,2.96-.56,5-1.69,6.12-1.13,1.13-2.82,1.69-5.07,1.69-.86,0-1.87-.23-3.03-.7l.12,16.33c2.41.85,5.21,1.28,8.4,1.28,4.74,0,8.59-.74,11.55-2.22,2.95-1.48,5.21-4.02,6.76-7.64,1.55-3.61,2.33-8.65,2.33-15.1v-48.28h-19.36v48.51Z"/><path class="cls-3" d="m256.09,447.3c0,5.44-.87,9.14-2.62,11.08-1.75,1.94-4.3,2.92-7.64,2.92s-5.95-1.17-7.58-3.5c-1.63-2.33-2.45-5.87-2.45-10.61v-42.1h-19.13v43.15c0,8.71,2.16,15.94,6.47,21.69,4.31,5.75,11.53,8.63,21.63,8.63,11.5,0,19.49-2.86,23.96-8.57,4.47-5.71,6.71-13.43,6.71-23.15v-41.75h-19.36v42.22Z"/></g></g></g></svg>