<?xml version="1.0" encoding="UTF-8"?><svg id="Camada_2" xmlns="http://www.w3.org/2000/svg" viewBox="0 0 287.01 313.9"><defs><style>.cls-1{fill:#fff;stroke-width:0px;}</style></defs><g id="Camada_1-2"><path class="cls-1" d="m40.2,81.57c-13.24-.21-25.28-10.11-29.04-23.09-4.02-13.87,1.98-29.23,14.89-37.23,4.92,15.87,7.79,23.7,8.62,23.49,1.11-.28,6.04-15.43-.23-44.74,31.76,9.58,41.39,35.09,37.22,54.49-2.63,12.22-14.84,27.34-31.46,27.08Z"/><path class="cls-1" d="m45.8,49.95l2.32,5.52c.46,1.09,4.84,10.97,16.95,21.61,3.2,2.81,6.23,5.04,8.96,6.82l.52-.39c.17-.13.35-.26.52-.39,4.37-3.19,8.9-4.69,12.65-4.69,5.23,0,8.92,2.92,8.52,8.28l-.08.99c14.38-7.41,30.42-11.56,47.34-11.56,11.57,0,22.73,1.94,33.23,5.53,1.75.6,3.48,1.24,5.19,1.93,5.99,2.41,11.74,5.38,17.2,8.83,1.56.99,3.1,2.01,4.61,3.08.76.53,1.5,1.08,2.25,1.63,1.49,1.11,2.95,2.25,4.38,3.43,1.43,1.18,2.84,2.4,4.22,3.65,2.76,2.51,5.41,5.16,7.93,7.94,1.26,1.39,2.5,2.82,3.7,4.27,1.8,2.18,3.54,4.44,5.2,6.76,1.11,1.55,2.18,3.13,3.22,4.73,2.08,3.21,4.02,6.54,5.81,9.98.9,1.72,1.76,3.46,2.58,5.23,1.23,2.65,2.38,5.36,3.44,8.12.35.92.7,1.84,1.03,2.78,1.67,4.65,3.08,9.45,4.23,14.36.92,3.93,1.67,7.94,2.23,12.01.22,1.57.4,3.15.56,4.73,1.72-.48,3.52-.74,5.38-.74,12.19,0,22.11,10.96,22.11,24.44s-9.92,24.44-22.11,24.44c-3.11,0-6.08-.72-8.77-2.01-.29,1.08-.59,2.16-.91,3.22-1.09,3.6-2.34,7.09-3.76,10.46-2.47,5.9-5.43,11.43-8.82,16.59-.48.74-.98,1.47-1.48,2.19-2.01,2.89-4.16,5.65-6.43,8.28-4.55,5.26-9.63,10.01-15.15,14.21-3.45,2.63-7.07,5.04-10.85,7.23-3.02,1.75-6.14,3.37-9.36,4.83-1.61.73-3.23,1.43-4.88,2.09-14.02,5.61-29.59,8.57-45.98,8.57-51.28,0-94.48-28.92-107.62-77.67-2.69,1.29-5.65,2.01-8.77,2.01-12.19,0-22.11-10.96-22.11-24.44s9.92-24.44,22.11-24.44c1.86,0,3.66.26,5.38.74,2.64-25.62,12.42-48.84,27.11-67.21l-3.46-.68c-9.04-1.77-7.96-13.3,2.18-21.36.17-.13.34-.27.52-.4l.69-.52c-2.25-1.66-4.61-3.58-7.03-5.81-12.44-11.44-16.31-21.42-16.96-23.3l-.61-1.78,10.88-14.1m50.95,184.47c-5.04,2.78-7.44,8.85-5.4,14.37,1.31,3.76,4.24,6.74,7.6,8.75,3.82,2.25,8.24,3.36,12.66,3.36.17,0,.33,0,.5,0,3.13,6.15,10,9.99,16.67,10.9,1.35.19,2.7.29,4.06.29,3.68,0,7.32-.72,10.71-2.24,3.37,1.48,7.03,2.22,10.68,2.22,5.65,0,11.28-1.78,15.8-5.38,1.98-1.6,3.68-3.64,4.83-5.97.15,0,.29,0,.44,0,5.79,0,11.6-1.91,15.9-5.82,2.77-2.57,4.79-6.16,4.83-10,.05-3.11-1.36-6.29-3.68-8.29,2.09,4.1,1.65,8.58-1.29,11.74-3.13,3.34-7.71,4.8-12.25,4.8-2,0-4-.28-5.87-.82l-3.27-.95-1.57,3.85c-1.58,3.69-5.64,5.75-9.48,6.44-1.12.2-2.28.31-3.46.31-3.16,0-6.38-.76-8.96-2.35l-2.62-1.64-2.75,1.64c-2.44,1.5-5.67,2.3-8.93,2.3-5.31,0-10.68-2.11-12.8-6.74l-1.65-4.03-3.38,1c-1.79.51-3.69.78-5.61.78-3.66,0-7.36-.97-10.32-3.08-5.42-3.88-5.54-10.41-1.39-15.44M47.08,40.1l-5.24,6.79-10.88,14.1-1.65,2.13.88,2.55.61,1.78c1.01,2.93,5.32,13.42,18.3,25.36.86.79,1.74,1.57,2.62,2.32-5.29,5.6-7.75,12.33-6.37,18.01.82,3.36,2.88,6,5.85,7.59-12.15,17.15-20.04,37.21-23.06,58.66-.35-.01-.69-.02-1.04-.02-14.95,0-27.11,13.21-27.11,29.44s12.16,29.44,27.11,29.44c1.85,0,3.67-.2,5.45-.6,7.19,22.48,20.92,41.34,39.95,54.78,19.88,14.05,44.43,21.47,71,21.47,16.95,0,33.04-3,47.84-8.93,1.72-.69,3.44-1.42,5.1-2.19,3.35-1.53,6.64-3.23,9.79-5.06,3.95-2.29,7.78-4.84,11.37-7.58,5.81-4.43,11.16-9.45,15.9-14.92,2.39-2.76,4.67-5.69,6.76-8.69.53-.76,1.05-1.53,1.55-2.3,3.58-5.45,6.7-11.3,9.26-17.4,1.25-2.98,2.39-6.07,3.39-9.19,1.78.39,3.59.59,5.44.59,14.95,0,27.11-13.21,27.11-29.44s-12.16-29.44-27.11-29.44c-.34,0-.69,0-1.03.02-.58-4.08-1.34-8.17-2.27-12.16-1.18-5.05-2.66-10.06-4.39-14.91-.34-.96-.7-1.93-1.07-2.88-1.09-2.84-2.3-5.68-3.58-8.43-.85-1.83-1.75-3.66-2.68-5.43-1.85-3.55-3.89-7.04-6.04-10.38-1.08-1.66-2.2-3.32-3.35-4.93-1.72-2.4-3.54-4.77-5.41-7.04-1.25-1.51-2.54-3.01-3.85-4.45-2.63-2.89-5.41-5.68-8.27-8.28-1.43-1.3-2.92-2.58-4.41-3.81-1.49-1.23-3.03-2.43-4.57-3.58-.77-.57-1.56-1.14-2.35-1.7-1.57-1.11-3.19-2.19-4.82-3.22-5.74-3.63-11.8-6.74-18-9.24-1.79-.72-3.62-1.4-5.44-2.03-11.24-3.85-22.96-5.8-34.85-5.8-15.08,0-29.67,3.08-43.47,9.17-.49-1-1.12-1.93-1.9-2.77-2.45-2.65-6.15-4.11-10.42-4.11-4.44,0-9.25,1.54-13.73,4.38-1.91-1.38-3.79-2.88-5.62-4.48-11.47-10.07-15.48-19.4-15.64-19.79l-2.32-5.52-3.33-7.91h0Zm96.33,223.8l.1-.06.03.02c3.25,2.01,7.36,3.11,11.61,3.11.4,0,.79,0,1.19-.03-.7.07-1.41.1-2.12.1-2.98,0-5.98-.62-8.68-1.8l-2.03-.89-2.02.91c-2.67,1.2-5.59,1.81-8.67,1.81-1.1,0-2.23-.08-3.36-.24-.26-.04-.52-.08-.77-.12,1.04.14,2.11.21,3.21.21,4.25,0,8.34-1.07,11.52-3.02h0Z"/><path class="cls-1" d="m173.31,160.5h-10.61v50.06h19.52c-6.37-5.92-10.79-18.82-10.79-33.79l13.97-4.66-12.77-8.51c.2-1.06.43-2.09.67-3.11h0Z"/><path class="cls-1" d="m239.2,160.5h-32.39c1.2,4.92,1.87,10.44,1.87,16.27,0,14.97-4.42,27.87-10.79,33.79h37.94s.02-.07.03-.1c.27-.84.54-1.68.79-2.53.04-.12.07-.25.11-.37.09-.3.18-.61.27-.92.04-.14.08-.28.12-.43.09-.31.18-.61.26-.92.04-.13.07-.25.11-.38.12-.43.24-.86.35-1.29,0-.01,0-.02,0-.03.11-.42.22-.84.33-1.26.03-.13.07-.27.1-.4.08-.3.15-.6.23-.9.04-.15.07-.3.11-.45.07-.3.14-.6.22-.9.03-.13.06-.27.09-.41.1-.43.2-.86.29-1.29,0-.01,0-.02,0-.04.09-.42.18-.84.27-1.26.03-.14.05-.27.08-.41.06-.3.12-.6.18-.9.03-.15.06-.31.09-.46.06-.3.11-.59.16-.89.02-.14.05-.28.07-.41.07-.43.15-.85.21-1.28,0,0,0-.01,0-.02.07-.42.13-.84.19-1.25.02-.14.04-.27.06-.4.04-.27.07-.55.11-.82v-19.51c-.01-.12-.02-.25-.04-.37-.03-.26-.05-.52-.08-.77-.04-.39-.09-.77-.14-1.16-.03-.24-.06-.47-.09-.71-.06-.44-.12-.87-.18-1.31-.03-.18-.05-.36-.08-.54-.09-.61-.19-1.22-.29-1.83-.02-.1-.04-.2-.05-.29-.09-.51-.18-1.02-.27-1.52-.04-.21-.08-.42-.12-.63-.05-.23-.09-.46-.14-.7h0Z"/><path class="cls-1" d="m102.36,94.1c-1.8,0-3.63.41-5.32,1.25-21.87,10.99-38.71,30.2-46.52,54.68h33.47c3-5.81,6.96-9.63,11.37-10.37-3.54-2.55-7.16-4.69-10.32-6.38-4.62-2.46-5.54-8.68-1.84-12.38l2.85-2.85c1.49-1.49,3.48-2.28,5.51-2.28.95,0,1.92.18,2.84.54,14.69,5.73,25.01,22.02,29.55,30.49.55,1.03.85,2.14.91,3.26,5.49.2,9.91,4.72,9.91,10.26v6.6h17.47v-6.6c0-5.54,4.41-10.06,9.91-10.26.06-1.11.36-2.23.91-3.26,4.54-8.47,14.86-24.76,29.55-30.49.92-.36,1.89-.54,2.84-.54,2.03,0,4.02.79,5.51,2.28l2.85,2.85c3.7,3.7,2.78,9.92-1.84,12.38-3.17,1.68-6.78,3.83-10.33,6.38,4.41.74,8.38,4.55,11.38,10.37h33.47c-.09-.27-.17-.54-.26-.81-.05-.14-.09-.28-.14-.42-.19-.56-.38-1.12-.58-1.68-.05-.13-.1-.27-.15-.4-.15-.42-.3-.84-.46-1.26-.08-.2-.15-.4-.23-.6-.13-.35-.27-.7-.41-1.04-.09-.22-.18-.44-.26-.66-.13-.33-.27-.65-.4-.98-.09-.22-.19-.45-.28-.67-.14-.32-.27-.63-.41-.95-.1-.22-.2-.45-.3-.67-.14-.31-.28-.63-.43-.94-.1-.22-.2-.44-.3-.65-.15-.32-.3-.64-.46-.95-.1-.21-.2-.41-.3-.62-.17-.34-.34-.68-.51-1.01-.09-.18-.18-.36-.27-.53-.22-.43-.45-.85-.67-1.27-.05-.09-.09-.17-.14-.26-.27-.51-.55-1.01-.84-1.51-.08-.15-.17-.29-.25-.44-.2-.35-.4-.7-.61-1.05-.11-.19-.22-.37-.33-.55-.18-.31-.37-.61-.56-.92-.12-.2-.25-.39-.37-.59-.18-.29-.36-.58-.55-.86-.13-.2-.26-.4-.39-.6-.18-.28-.37-.56-.55-.84-.13-.2-.27-.4-.4-.59-.19-.28-.38-.56-.57-.83-.13-.19-.27-.38-.4-.57-.2-.28-.41-.57-.61-.85-.13-.18-.26-.36-.39-.53-.23-.31-.46-.61-.69-.92-.11-.15-.22-.3-.34-.45-.34-.44-.68-.88-1.02-1.31,0,0-.01-.02-.02-.03-.35-.44-.71-.88-1.07-1.32-.11-.14-.23-.28-.35-.41-.25-.29-.49-.59-.74-.88-.14-.17-.29-.33-.43-.49-.23-.26-.46-.52-.69-.78-.15-.17-.31-.34-.46-.51-.22-.25-.45-.5-.68-.74-.16-.17-.32-.34-.48-.52-.23-.24-.45-.48-.68-.72-.16-.17-.33-.34-.49-.51-.23-.24-.47-.48-.71-.71-.16-.16-.32-.32-.49-.49-.25-.25-.5-.49-.75-.73-.15-.15-.3-.29-.46-.44-.29-.27-.58-.55-.87-.82-.12-.11-.24-.23-.36-.34-.41-.38-.83-.76-1.25-1.13-.06-.05-.12-.1-.17-.15-.36-.32-.73-.64-1.1-.95-.15-.12-.29-.25-.44-.37-.28-.24-.57-.48-.85-.71-.17-.14-.35-.28-.52-.42-.26-.21-.53-.43-.8-.64-.18-.14-.37-.29-.55-.43-.26-.2-.53-.41-.79-.61-.19-.14-.37-.28-.56-.42-.27-.2-.53-.4-.8-.59-.19-.14-.38-.28-.57-.41-.27-.2-.55-.39-.82-.59-.19-.13-.37-.26-.56-.39-.29-.2-.59-.4-.88-.6-.17-.12-.34-.23-.52-.35-.35-.23-.7-.46-1.06-.69-.12-.08-.24-.16-.36-.23-.47-.3-.95-.6-1.43-.9-.11-.07-.23-.14-.34-.2-.37-.23-.74-.45-1.11-.67-.18-.1-.36-.21-.53-.31-.31-.18-.62-.36-.93-.54-.2-.11-.4-.22-.6-.34-.29-.16-.59-.33-.89-.49-.21-.11-.42-.22-.63-.34-.29-.16-.59-.31-.88-.46-.21-.11-.42-.22-.64-.33-.16-.08-.31-.16-.47-.24-1.67-.82-3.46-1.21-5.24-1.21-3.76,0-7.41,1.76-9.52,4.96-.07.1-.14.21-.21.31-.08.12-.16.24-.25.36-.18.26-.36.51-.54.76-.07.1-.14.2-.21.29-.26.34-.52.68-.79,1.01-.04.05-.08.1-.13.15-.23.28-.46.56-.7.84-.09.11-.19.21-.28.32-.2.22-.4.44-.6.66-.1.11-.2.22-.3.32-.22.23-.44.46-.67.68-.08.08-.16.16-.25.25-.31.3-.62.59-.94.88-.07.06-.14.12-.2.18-.26.23-.52.45-.78.68-.11.09-.22.19-.34.28-.23.19-.46.38-.7.56-.12.09-.23.18-.35.27-.26.2-.53.4-.79.59-.09.06-.17.13-.26.19-.35.25-.71.5-1.08.73-.09.06-.18.11-.27.17-.28.18-.56.36-.85.53-.13.08-.26.15-.39.23-.26.15-.52.3-.79.45-.13.07-.26.15-.39.22-.31.17-.61.33-.93.49-.08.04-.17.09-.25.13-.39.2-.79.39-1.19.57-.11.05-.22.1-.33.14-.3.13-.6.26-.91.39-.14.06-.29.12-.43.17-.28.11-.57.22-.86.33-.14.05-.28.11-.42.16-.35.13-.71.25-1.06.36-.07.02-.14.05-.21.07-.43.14-.86.27-1.3.39-.12.04-.25.07-.38.1-.32.09-.63.17-.96.25-.15.04-.31.07-.46.11-.31.07-.62.14-.93.2-.15.03-.29.06-.44.09-.4.08-.81.15-1.22.22-.05,0-.1.02-.15.03-.46.07-.92.13-1.38.19-.14.02-.28.03-.42.05-.33.04-.66.07-.99.1-.16.01-.33.03-.49.04-.33.02-.66.04-.99.06-.15,0-.3.02-.45.02-.47.02-.95.03-1.42.03h0c-13.35,0-25.05-6.63-31.62-16.59-2.11-3.19-5.76-4.96-9.52-4.96h0Z"/><path class="cls-1" d="m80.2,160.5h-32.39c-.65,3.21-1.15,6.49-1.5,9.84v19.48c.88,6.82,2.69,14.01,4.87,20.74h37.93c-6.37-5.92-10.79-18.82-10.79-33.79l13.97-4.66-12.77-8.51c.2-1.06.43-2.09.67-3.11h0Z"/><path class="cls-1" d="m124.31,160.5h-10.6c1.2,4.92,1.87,10.44,1.87,16.27,0,14.97-4.42,27.87-10.79,33.79h19.52v-50.06h0Z"/><path class="cls-1" d="m27.11,191.34c-8.35,0-15.14,7.83-15.14,17.46s6.79,17.46,15.14,17.46c2.57,0,4.99-.75,7.12-2.06-.8-3.93-1.41-7.98-1.83-12.14-.45-.83-.93-1.64-1.45-2.4-2.19-3.22-5-5.92-8.49-7.85,1.03-.44,2.09-.64,3.16-.64,2.19,0,4.37.84,6.23,2.15-.04-1.4-.07-2.81-.07-4.23,0-2.3.06-4.57.17-6.84-1.52-.59-3.14-.92-4.83-.92h0Z"/><path class="cls-1" d="m152.24,180.86h-17.47v29.88c0,5.67-4.61,10.28-10.28,10.28H55c.47,1.16.95,2.3,1.42,3.39,1.77,4.06,5.95,6.59,10.42,6.59.96,0,1.94-.12,2.91-.36,17.13-4.3,35.73-7.14,55.28-8.25,1.1,8.08,8.95,14.35,18.49,14.35s17.39-6.27,18.49-14.35c19.55,1.11,38.15,3.95,55.28,8.25.97.24,1.94.36,2.91.36,4.47,0,8.65-2.52,10.42-6.59.16-.36.31-.72.47-1.09.03-.06.05-.12.08-.18.13-.3.26-.61.38-.91.04-.09.07-.17.11-.26.13-.3.25-.61.38-.92,0-.01,0-.02.01-.03h-69.5c-5.67,0-10.28-4.61-10.28-10.28v-29.88h0Z"/></g></svg>