<?xml version="1.0" encoding="UTF-8"?><svg id="Camada_2" xmlns="http://www.w3.org/2000/svg" viewBox="0 0 181.16 205.53"><defs><style>.cls-1{stroke-width:0px;}</style></defs><g id="Camada_1-2"><path class="cls-1" d="m167.2,124.15c-1.2,0-2.37.17-3.48.49-.12-1.25-.26-2.48-.43-3.71-.37-2.68-.86-5.32-1.47-7.9-.38-1.61-.8-3.2-1.26-4.77,0,0-1.49-4.57-1.53-4.68-.22-.61-.45-1.22-.68-1.83-.7-1.82-1.45-3.6-2.27-5.34-.54-1.16-1.11-2.31-1.7-3.44-1.18-2.26-2.46-4.45-3.83-6.57-.68-1.06-1.39-2.1-2.12-3.12-1.09-1.53-2.23-3.01-3.42-4.45-.79-.96-1.6-1.9-2.44-2.81-1.66-1.83-3.41-3.58-5.22-5.23-.91-.82-1.83-1.63-2.78-2.4-.94-.78-1.91-1.53-2.88-2.26-.49-.36-.98-.72-1.48-1.07-1-.7-2.01-1.38-3.03-2.03-3.59-2.27-7.38-4.22-11.32-5.81-1.13-.45-2.27-.88-3.42-1.27-6.91-2.36-14.26-3.64-21.87-3.64-11.14,0-21.7,2.73-31.17,7.61l.05-.65c.42-5.52-7.28-8.19-16.84-.14-5.96-2.83-10.83-7.31-11.33-9.82,6.55-3.86,9-9.64,9.81-13.42,2.75-12.77-3.59-29.57-24.5-35.87,4.13,19.29.88,29.26.15,29.45-.55.14-2.44-5.01-5.68-15.46C2.58,19.25-1.38,29.37,1.27,38.5c2.31,7.97,11.89,15.83,21.46,13.98,2.18,3.77,10.18,10.33,13.35,12.17-9.06,7.89-8.28,13.66-3.01,14.69l2.28.45c-5.64,7.05-10.18,15.2-13.33,24.11-.5,1.29-1.41,4.37-1.41,4.37-1.54,5.24-2.62,10.71-3.16,16.36-1.11-.32-2.28-.49-3.48-.49-7.7,0-13.96,6.95-13.96,15.49s6.26,15.49,13.96,15.49c2,0,3.9-.47,5.62-1.31,8.46,32.44,37.04,51.71,71,51.71,10.79,0,21.04-1.95,30.27-5.64,1.09-.43,2.16-.89,3.22-1.38,2.11-.97,4.17-2.03,6.16-3.18,2.49-1.44,4.87-3.03,7.14-4.76,3.63-2.77,6.97-5.89,9.97-9.36,1.5-1.73,2.91-3.55,4.23-5.45.33-.48.66-.96.97-1.44,2.23-3.4,4.18-7.04,5.81-10.92.93-2.22,1.76-4.51,2.47-6.88.27-.89.52-1.79.75-2.7,1.72.84,3.62,1.31,5.62,1.31,7.7,0,13.96-6.95,13.96-15.49s-6.26-15.49-13.96-15.49Zm-107.2-59.19c3.43-1.72,7.72-.67,9.77,2.44,4.32,6.56,12.03,10.92,20.82,10.92h0c.31,0,.63,0,.94-.02.1,0,.2,0,.29-.01.22-.01.44-.02.65-.04.11,0,.22-.02.32-.03.22-.02.44-.04.65-.06.09,0,.18-.02.28-.03.3-.04.61-.08.91-.13.03,0,.06-.01.1-.02.27-.04.54-.09.8-.14.1-.02.19-.04.29-.06.21-.04.41-.09.61-.13.1-.02.2-.05.31-.07.21-.05.42-.11.63-.16.08-.02.17-.04.25-.07.29-.08.57-.17.85-.26.05-.02.09-.03.14-.05.24-.08.47-.16.7-.24.09-.03.18-.07.28-.1.19-.07.38-.14.57-.22.09-.04.19-.08.28-.12.2-.08.4-.17.6-.26.07-.03.14-.06.22-.1.26-.12.53-.25.79-.38.06-.03.11-.06.17-.09.2-.1.41-.21.61-.32.09-.05.17-.1.26-.14.17-.1.35-.2.52-.3.09-.05.17-.1.25-.15.19-.11.37-.23.56-.35.06-.04.12-.07.18-.11.24-.16.48-.32.71-.48.06-.04.11-.08.17-.13.18-.13.35-.26.52-.39.08-.06.16-.12.23-.18.15-.12.31-.24.46-.37.07-.06.15-.12.22-.18.17-.15.34-.3.51-.45.04-.04.09-.08.13-.12.21-.19.42-.38.62-.58.05-.05.11-.11.16-.16.15-.15.3-.3.44-.45.07-.07.13-.14.2-.21.13-.14.27-.29.4-.43.06-.07.12-.14.18-.21.16-.18.31-.36.46-.55.03-.03.06-.07.08-.1.18-.22.35-.44.52-.67.05-.06.09-.13.14-.19.12-.17.24-.33.36-.5.05-.08.11-.16.16-.24.05-.07.09-.13.14-.2,2.04-3.09,6.29-4.15,9.71-2.46.1.05.21.1.31.16.14.07.28.14.42.22.19.1.39.2.58.31.14.07.28.15.41.22.2.11.39.21.58.32.13.07.26.15.4.22.21.12.41.23.61.35.12.07.24.14.35.2.25.14.49.29.73.44.07.04.15.09.22.13.32.19.63.39.94.59.08.05.16.1.24.15.23.15.46.3.69.45.11.08.23.15.34.23.19.13.39.26.58.4.12.09.25.17.37.26.18.13.36.26.54.39.12.09.25.18.37.27.18.13.35.26.53.39.12.09.25.19.37.28.17.13.35.27.52.4.12.09.24.19.36.28.18.14.35.28.52.42.11.09.23.18.34.28.19.15.37.31.56.47.1.08.19.16.29.24.24.21.48.42.72.63.04.03.08.07.11.1.28.24.55.49.82.74.08.07.16.15.24.22.19.18.38.36.57.54.1.1.2.19.3.29.17.16.33.32.5.48.11.11.21.21.32.32.16.16.31.31.46.47.11.11.22.22.32.33.15.16.3.31.45.47.11.11.21.23.32.34.15.16.3.32.45.49.1.11.2.22.31.34.15.17.3.34.45.51.09.11.19.22.28.32.16.19.33.39.49.58.08.09.15.18.23.27.24.29.47.58.7.87v.02c.24.29.46.57.69.86.07.1.15.2.22.29.15.2.3.4.45.6.09.12.17.23.25.35.13.19.27.37.4.56.09.13.18.25.26.38.13.18.25.36.38.55.09.13.18.26.26.39.12.18.24.37.36.55.09.13.17.26.26.4.12.19.24.38.36.57.08.13.16.26.24.39.12.2.24.4.37.6.07.12.15.24.22.37.14.23.27.46.4.69.05.1.11.19.17.29.19.33.37.66.55.99.03.06.06.11.09.17.15.28.3.55.44.84.06.12.12.23.18.35.11.22.23.44.34.67.07.13.13.27.2.41.1.21.2.42.3.63.07.14.13.29.2.43.1.21.19.41.28.62.07.15.13.29.2.44.09.21.18.42.27.62.06.15.13.29.19.44.09.21.18.43.26.64.06.14.12.29.17.43.09.23.18.46.27.69.05.13.1.26.15.4.1.28.2.55.3.83.03.09.06.18.1.26.13.37.26.74.38,1.11.03.09.06.19.09.28.09.28.18.56.27.84.04.14.08.28.13.42.02.05.03.11.05.17h-48.97c-3.24,0-5.88,2.64-5.88,5.87v5.53h-13.28v-5.53c0-3.24-2.64-5.87-5.87-5.87H29.1c5.01-16.54,16.24-29.52,30.9-36.89Zm23.94,55.11h13.28l5.11-.04v-12.3c0-.42.35-.77.77-.77h50.3s.02.07.02.11c.03.16.07.31.1.47.05.26.1.51.15.77.03.14.06.28.08.42.06.33.12.67.18,1,.01.06.02.13.03.19.07.4.13.8.19,1.21.02.12.03.24.05.36.04.29.08.57.12.86.02.15.04.31.06.47.03.25.06.51.09.76.02.17.04.34.06.51.03.24.05.49.08.73.02.17.03.35.05.52.02.24.04.49.06.73.01.18.03.35.04.53.02.25.03.49.05.74.01.17.02.35.03.52.01.26.02.52.04.78,0,.16.01.33.02.49.01.29.02.57.02.86,0,.14,0,.28.01.42,0,.43.01.86.01,1.29,0,.26,0,.52,0,.78,0,.08,0,.17,0,.25,0,.18-.01.37-.02.55,0,.09,0,.19-.01.28,0,.19-.02.37-.03.56,0,.08-.01.17-.02.25-.02.27-.04.54-.06.81h0c-.02.27-.05.55-.08.82,0,.09-.02.17-.03.26-.02.19-.04.39-.07.58-.01.1-.02.19-.04.29-.02.19-.05.38-.08.58-.01.09-.02.18-.04.27-.04.27-.08.55-.12.82h0c-.04.29-.09.57-.14.85-.02.09-.03.18-.05.27-.03.2-.07.39-.11.58-.02.1-.04.2-.06.3-.04.2-.08.39-.12.59-.02.09-.04.18-.05.27-.06.28-.11.55-.17.83,0,0,0,.02,0,.02-.06.28-.13.57-.19.85-.02.09-.04.18-.06.27-.05.2-.09.4-.14.6-.02.1-.05.2-.07.3-.05.2-.1.4-.15.59-.02.09-.04.18-.07.27-.07.28-.14.55-.22.83,0,0,0,.01,0,.02-.08.28-.15.57-.23.85-.02.08-.05.17-.07.25-.06.2-.11.4-.17.6-.03.09-.05.19-.08.28-.06.2-.12.4-.18.6-.02.08-.05.16-.07.25-.17.56-.34,1.12-.52,1.67-.02.08-.05.15-.07.23-.07.2-.13.4-.2.6-.01.04-.03.09-.04.13l-1.86,5.11c-.1.26-.2.52-.31.77-.02.05-.04.09-.06.14-.08.2-.17.4-.25.6-.02.06-.05.11-.07.17-.08.2-.17.4-.25.6-.02.04-.03.08-.05.12-.1.24-.21.48-.31.72-1.42,3.25-5.17,5-8.77,4.1-11.27-2.83-23.52-4.7-36.39-5.43-.72,5.32-5.89,9.45-12.17,9.45s-11.45-4.13-12.17-9.45c-.16,0-.31.02-.47.03-1.03.14-2.05.2-3.08.21-11.57.85-22.61,2.62-32.84,5.19-3.6.9-7.36-.85-8.77-4.1-.43-.99-.86-2.04-1.29-3.12l-1.86-5.11c-2.18-6.51-3.88-13.79-3.88-20,0-5.13.54-10.06,1.55-14.74h50.3c.42,0,.77.35.77.77v12.29m5.11.05l-5.12-.02m50.64,1.3c0,5.01-2.37,9.08-5.3,9.08s-5.3-4.06-5.3-9.08,2.37-9.08,5.3-9.08,5.3,4.06,5.3,9.08Zm-66.42,0c0,5.01-2.37,9.08-5.3,9.08s-5.3-4.06-5.3-9.08,2.37-9.08,5.3-9.08,5.3,4.06,5.3,9.08Z"/></g></svg>