<?xml version="1.0" encoding="UTF-8"?><svg xmlns="http://www.w3.org/2000/svg" viewBox="0 0 282.47 315"><defs><style>.cls-1{mix-blend-mode:multiply;}.cls-2{isolation:isolate;}.cls-3{fill:#1a1a1a;}.cls-3,.cls-4,.cls-5{stroke-width:0px;}.cls-4{fill:#11c5d9;}.cls-5{fill:#ff331f;}</style></defs><g class="cls-2"><g id="Camada_2"><g id="Camada_1-2"><rect class="cls-4" x="36.79" y="158.33" width="90.2" height="61.72" rx="5.14" ry="5.14"/><rect class="cls-4" x="155.48" y="158.33" width="90.2" height="61.72" rx="5.14" ry="5.14"/><path class="cls-3" d="m259.93,188.01c-1.89,0-3.73.26-5.49.75-.17-1.62-.35-3.23-.57-4.83-.58-4.15-1.34-8.24-2.27-12.24-1.17-5.01-2.62-9.9-4.32-14.64-.34-.95-.69-1.89-1.05-2.83-1.08-2.81-2.25-5.57-3.51-8.28-.84-1.8-1.72-3.58-2.63-5.33-1.83-3.5-3.81-6.9-5.93-10.17-1.06-1.64-2.15-3.25-3.28-4.83-1.69-2.37-3.46-4.67-5.3-6.9-1.23-1.48-2.48-2.94-3.77-4.36-2.58-2.84-5.28-5.54-8.09-8.09-1.41-1.28-2.84-2.52-4.3-3.72-1.46-1.2-2.95-2.37-4.47-3.5-.76-.56-1.52-1.12-2.29-1.66-1.54-1.09-3.11-2.14-4.7-3.14-5.57-3.52-11.43-6.54-17.54-9.01-1.75-.7-3.51-1.36-5.29-1.97-10.7-3.66-22.08-5.64-33.88-5.64-17.26,0-33.62,4.23-48.28,11.79l.08-1.01c.71-9.37-10.91-11.44-21.58-3.66-.18.13-.36.26-.53.4l-.53.4c-2.78-1.81-5.87-4.09-9.13-6.95-12.36-10.84-16.82-20.92-17.29-22.04l-2.37-5.63-11.1,14.38.62,1.81c.66,1.92,4.61,12.1,17.29,23.76,2.47,2.27,4.88,4.23,7.17,5.92l-.7.53c-.18.13-.35.27-.53.41-10.34,8.21-11.44,19.97-2.22,21.78l3.53.69c-14.98,18.73-24.95,42.42-27.64,68.54-1.76-.49-3.59-.75-5.49-.75-12.43,0-22.55,11.18-22.55,24.92s10.11,24.92,22.55,24.92c3.18,0,6.2-.73,8.94-2.05,13.4,49.71,57.46,79.2,109.75,79.2,16.72,0,32.59-3.01,46.89-8.74,1.68-.67,3.34-1.38,4.98-2.13,3.28-1.5,6.46-3.14,9.54-4.93,3.85-2.24,7.55-4.7,11.06-7.37,5.63-4.28,10.8-9.13,15.45-14.49,2.32-2.68,4.51-5.5,6.56-8.44.51-.74,1.01-1.48,1.51-2.23,3.46-5.26,6.47-10.91,9-16.92,1.44-3.44,2.72-6.99,3.83-10.66.33-1.08.63-2.18.93-3.28,2.74,1.31,5.76,2.05,8.94,2.05,12.43,0,22.55-11.18,22.55-24.92s-10.11-24.92-22.55-24.92Zm-99.11-24.34h10.82c-.25,1.03-.48,2.09-.69,3.17l13.02,8.68-14.24,4.75c0,15.27,4.51,28.42,11,34.46h-19.91v-51.05Zm46.89,16.59c0-5.95-.69-11.58-1.91-16.59h33.03c.05.24.1.47.14.71.04.22.09.43.13.65.1.52.19,1.03.28,1.55.02.1.04.2.05.3.11.62.2,1.24.3,1.87.03.18.05.37.08.56.06.44.13.89.19,1.33.03.24.06.48.09.72.05.39.1.79.14,1.18.03.26.06.52.09.79.01.13.03.25.04.38v19.89c-.04.28-.07.56-.11.83-.02.14-.04.28-.06.41-.06.42-.12.85-.19,1.28,0,0,0,.01,0,.02-.07.43-.14.87-.22,1.3-.02.14-.05.28-.08.42-.05.3-.11.6-.17.91-.03.16-.06.31-.09.47-.06.3-.12.61-.18.91-.03.14-.05.28-.08.41-.09.43-.18.85-.27,1.28,0,.01,0,.02,0,.04-.1.44-.2.88-.3,1.32-.03.14-.06.28-.1.41-.07.31-.15.62-.22.92-.04.15-.08.31-.11.46-.08.31-.15.61-.23.92-.04.14-.07.28-.1.41-.11.43-.22.86-.34,1.28,0,.01,0,.02,0,.03-.12.44-.24.88-.36,1.31-.04.13-.07.26-.11.39-.09.31-.18.63-.27.94-.04.14-.08.29-.13.43-.09.31-.18.62-.28.93-.04.13-.08.25-.11.38-.26.87-.53,1.73-.81,2.58-.01.04-.02.07-.03.11h-38.68c6.49-6.03,11-19.19,11-34.46Zm-98.71-79.25c6.7,10.16,18.63,16.92,32.25,16.92h0c.49,0,.97-.01,1.45-.03.15,0,.3-.01.45-.02.34-.02.67-.04,1.01-.06.17-.01.33-.02.5-.04.34-.03.68-.06,1.01-.1.14-.02.29-.03.43-.05.47-.06.94-.12,1.4-.19.05,0,.1-.02.15-.03.42-.07.83-.14,1.24-.22.15-.03.3-.06.45-.09.32-.07.63-.13.95-.21.16-.04.32-.07.47-.11.33-.08.65-.16.97-.25.13-.03.26-.07.38-.1.44-.12.88-.26,1.32-.4.07-.02.15-.05.22-.07.36-.12.73-.24,1.09-.37.14-.05.29-.11.43-.16.29-.11.59-.22.88-.34.15-.06.29-.12.44-.18.31-.13.62-.26.92-.4.11-.05.22-.1.33-.15.41-.19.82-.38,1.22-.58.09-.04.17-.09.26-.13.32-.16.63-.33.94-.5.13-.07.27-.15.4-.22.27-.15.54-.3.8-.46.13-.08.26-.16.39-.23.29-.18.58-.36.87-.54.09-.06.18-.12.27-.18.37-.24.74-.49,1.1-.75.09-.06.18-.13.27-.19.27-.2.54-.4.81-.6.12-.09.24-.19.36-.28.24-.19.48-.38.71-.57.12-.09.23-.19.34-.28.27-.23.53-.46.8-.69.07-.06.14-.12.21-.18.33-.29.65-.59.96-.9.08-.08.17-.17.25-.25.23-.23.46-.46.68-.69.1-.11.21-.22.31-.33.21-.22.41-.45.61-.67.1-.11.19-.21.29-.32.24-.28.48-.56.72-.85.04-.05.09-.1.13-.16.27-.34.54-.69.8-1.03.07-.1.15-.2.22-.3.19-.26.37-.51.55-.77.09-.12.17-.25.25-.37.07-.11.14-.21.21-.31,3.16-4.79,9.75-6.42,15.04-3.82.16.08.32.16.48.24.22.11.43.22.65.33.3.16.6.31.9.47.21.11.43.23.64.34.3.16.6.33.9.5.2.11.41.23.61.34.32.18.63.36.95.55.18.11.36.21.55.32.38.22.76.45,1.14.68.11.07.23.14.34.21.49.3.98.61,1.46.92.12.08.24.16.36.24.36.23.72.47,1.08.7.18.12.35.24.53.36.3.2.6.41.9.61.19.13.38.27.57.4.28.2.56.4.84.6.19.14.39.28.58.42.27.2.55.4.82.6.19.14.38.29.57.43.27.21.54.41.81.62.19.15.37.29.56.44.27.22.54.43.81.65.18.14.35.28.53.43.29.24.58.48.87.72.15.13.3.25.45.38.38.32.75.65,1.12.97.06.05.12.1.18.15.43.38.86.76,1.28,1.15.12.11.25.23.37.34.3.28.59.55.89.83.16.15.31.3.47.45.26.25.51.5.77.75.17.16.33.33.5.5.24.24.48.48.72.73.17.17.33.34.5.52.23.24.47.49.7.73.16.17.33.35.49.53.23.25.46.5.69.76.16.17.32.35.47.52.24.26.47.53.7.8.15.17.29.33.44.5.26.3.51.6.76.9.12.14.24.28.35.42.37.44.73.89,1.09,1.34,0,0,.01.02.02.03.35.44.7.89,1.04,1.34.12.15.23.3.34.45.23.31.47.62.7.93.13.18.26.36.39.54.21.29.42.58.62.87.14.19.27.39.41.59.2.28.39.56.59.85.14.2.27.4.41.61.19.28.38.57.56.85.13.2.27.41.4.61.19.29.37.59.56.88.13.2.25.4.38.6.19.31.38.62.57.93.11.19.23.38.34.57.21.36.42.71.62,1.07.09.15.17.3.26.44.29.51.57,1.02.85,1.54.05.09.09.18.14.26.23.43.46.86.68,1.29.09.18.19.36.28.55.18.34.35.69.52,1.03.1.21.2.42.31.63.16.32.31.65.47.97.1.22.21.44.31.67.15.32.29.64.44.96.1.23.2.45.3.68.14.32.28.64.42.97.1.23.19.46.29.68.14.33.27.66.41,1,.09.22.18.45.27.67.14.35.28.71.41,1.06.08.21.16.41.24.62.16.43.32.86.47,1.29.05.14.1.27.15.41.2.57.4,1.14.59,1.71.05.14.09.29.14.43.09.27.18.55.27.82h-34.13c-3.06-5.93-7.11-9.81-11.6-10.57,3.62-2.61,7.3-4.79,10.53-6.51,4.71-2.5,5.65-8.85,1.88-12.62l-2.91-2.91c-2.23-2.23-5.58-2.93-8.52-1.78-14.98,5.84-25.5,22.45-30.13,31.09-.56,1.05-.87,2.18-.93,3.32-5.6.2-10.1,4.81-10.1,10.46v6.73h-17.81v-6.73c0-5.65-4.5-10.26-10.1-10.46-.06-1.14-.37-2.27-.93-3.32-4.63-8.63-15.15-25.24-30.13-31.09-2.94-1.15-6.29-.45-8.52,1.78l-2.91,2.91c-3.77,3.77-2.83,10.12,1.88,12.62,3.23,1.72,6.91,3.9,10.52,6.5-4.49.76-8.54,4.65-11.6,10.58h-34.13c7.97-24.96,25.14-44.55,47.44-55.76,5.31-2.67,11.95-1.04,15.13,3.78Zm-66.87,92.56v-19.87c.35-3.42.86-6.77,1.53-10.04h33.03c-.25,1.03-.48,2.09-.69,3.17l13.02,8.68-14.24,4.75c0,15.27,4.51,28.42,11,34.46h-38.68c-2.22-6.86-4.07-14.19-4.97-21.14Zm70.63-13.31c0-5.95-.69-11.58-1.91-16.59h10.81v51.05h-19.91c6.49-6.03,11-19.19,11-34.46Zm-90.2,50.48c-8.51,0-15.43-7.99-15.43-17.81s6.92-17.81,15.43-17.81c1.72,0,3.38.33,4.93.94-.11,2.31-.18,4.63-.18,6.97,0,1.45.03,2.89.08,4.31-2.81-1.98-6.37-2.91-9.57-1.54,3.56,1.97,6.42,4.72,8.66,8,.54.78,1.02,1.6,1.48,2.44.42,4.25,1.05,8.37,1.86,12.38-2.16,1.34-4.64,2.1-7.26,2.1Zm167.31,29.18c-4.51,4.09-10.62,6.04-16.67,5.94-1.17,2.37-2.9,4.45-4.93,6.09-7.58,6.04-18.23,7.06-27,3.22-4.74,2.12-9.94,2.72-15.06,2-6.8-.93-13.81-4.84-17-11.11-4.68.09-9.37-1.03-13.42-3.42-3.42-2.05-6.41-5.09-7.75-8.93-2.08-5.63.37-11.82,5.51-14.65-4.23,5.13-4.12,11.79,1.41,15.75,4.6,3.27,10.94,3.86,16.24,2.34l3.45-1.02,1.68,4.11c3.49,7.62,15.62,8.55,22.16,4.53l2.8-1.67,2.67,1.67c3.6,2.23,8.45,2.85,12.66,2.08,3.91-.7,8.05-2.81,9.66-6.57l1.6-3.93,3.33.97c6.23,1.78,13.88.84,18.49-4.06,3-3.22,3.45-7.79,1.32-11.97,2.36,2.03,3.8,5.28,3.75,8.45-.04,3.91-2.1,7.57-4.92,10.19Zm41.24-33.56c-.04.09-.07.18-.11.27-.13.31-.26.62-.39.93-.03.06-.05.12-.08.18-.16.37-.32.74-.48,1.11-2.19,5.04-8.01,7.75-13.59,6.35-17.47-4.38-36.43-7.28-56.37-8.42-1.12,8.24-9.13,14.64-18.85,14.64s-17.73-6.39-18.85-14.64c-19.93,1.13-38.9,4.03-56.37,8.42-5.58,1.4-11.4-1.31-13.59-6.35-.48-1.11-.96-2.27-1.45-3.46h70.87c5.78,0,10.48-4.7,10.48-10.48v-30.47h17.81v30.47c0,5.78,4.7,10.48,10.48,10.48h70.87s0,.02-.01.03c-.13.31-.26.63-.38.94Zm28.83,4.38c-2.62,0-5.09-.76-7.25-2.09,1.17-5.78,1.95-11.81,2.29-18.07,3.03-1.82,6.54-3.14,9.71-4.76-2.98-1.43-6.37-1.63-9.52-.78,0-.67.03-1.33.03-2,0-1.08-.01-2.16-.04-3.24-.03-1.25-.08-2.5-.14-3.74,1.55-.6,3.2-.94,4.93-.94,8.51,0,15.43,7.99,15.43,17.81s-6.92,17.81-15.43,17.81Z"/><g class="cls-1"><path class="cls-5" d="m35.89,83.18c-13.5-.21-25.78-10.31-29.62-23.54-4.1-14.14,2.02-29.81,15.19-37.97,5.02,16.19,7.95,24.17,8.79,23.95,1.14-.29,6.16-15.74-.23-45.62,32.38,9.77,42.21,35.79,37.95,55.57-2.68,12.46-15.13,27.88-32.08,27.61Z"/></g></g></g></g></svg>