<?xml version="1.0" encoding="UTF-8"?><svg xmlns="http://www.w3.org/2000/svg" viewBox="0 0 297.29 318.76"><defs><style>.cls-1{mix-blend-mode:multiply;}.cls-2{isolation:isolate;}.cls-3{fill:#11c5d9;}.cls-3,.cls-4{stroke-width:0px;}.cls-4{fill:#ff331f;}</style></defs><g class="cls-2"><g id="Camada_2"><g id="Camada_1-2"><g class="cls-1"><path class="cls-4" d="m263.03,190.25c-1.91,0-3.77.27-5.55.76-.17-1.64-.36-3.27-.58-4.88-.58-4.2-1.35-8.33-2.3-12.39-1.18-5.07-2.65-10.01-4.37-14.82-.34-.96-.7-1.92-1.06-2.86-1.09-2.85-2.28-5.64-3.55-8.38-.85-1.82-1.74-3.62-2.66-5.39-1.85-3.54-3.85-6.98-6-10.3-1.07-1.66-2.18-3.29-3.32-4.89-1.71-2.4-3.5-4.73-5.36-6.98-1.24-1.5-2.51-2.97-3.82-4.41-2.61-2.87-5.34-5.6-8.19-8.19-1.42-1.29-2.88-2.55-4.36-3.77-1.48-1.22-2.99-2.4-4.52-3.54-.77-.57-1.54-1.13-2.32-1.68-1.56-1.1-3.14-2.16-4.75-3.18-5.63-3.57-11.57-6.62-17.75-9.11-1.77-.71-3.55-1.38-5.36-2-10.83-3.71-22.35-5.71-34.29-5.71-17.47,0-34.02,4.28-48.85,11.93l.08-1.02c.72-9.48-11.04-11.58-21.84-3.7-.18.13-.36.27-.54.4l-.53.41c-2.81-1.83-5.94-4.14-9.24-7.03-12.5-10.97-17.02-21.17-17.49-22.3l-2.39-5.69-11.23,14.55.63,1.84c.67,1.94,4.66,12.24,17.5,24.05,2.5,2.3,4.94,4.28,7.26,5.99l-.71.54c-.18.14-.36.27-.53.41-10.47,8.31-11.58,20.21-2.25,22.04l3.57.7c-15.16,18.95-25.25,42.92-27.97,69.36-1.78-.49-3.64-.76-5.55-.76-12.58,0-22.82,11.31-22.82,25.22s10.24,25.22,22.82,25.22c3.21,0,6.27-.74,9.05-2.07,13.56,50.3,58.15,80.15,111.06,80.15,16.92,0,32.98-3.05,47.45-8.84,1.7-.68,3.38-1.4,5.04-2.16,3.31-1.51,6.54-3.18,9.66-4.99,3.9-2.26,7.64-4.75,11.2-7.46,5.69-4.34,10.93-9.24,15.63-14.67,2.35-2.72,4.57-5.56,6.64-8.54.52-.74,1.03-1.5,1.53-2.26,3.5-5.32,6.55-11.04,9.1-17.12,1.46-3.48,2.75-7.07,3.88-10.79.33-1.1.64-2.2.94-3.32,2.78,1.33,5.83,2.07,9.05,2.07,12.58,0,22.82-11.31,22.82-25.22s-10.24-25.22-22.82-25.22Zm-100.3-24.63h10.95c-.25,1.04-.49,2.11-.69,3.2l13.17,8.78-14.41,4.8c0,15.45,4.56,28.76,11.13,34.87h-20.15v-51.66Zm47.45,16.79c0-6.02-.69-11.72-1.93-16.79h33.42c.05.24.1.48.14.72.04.22.09.44.13.65.1.52.19,1.05.28,1.57.02.1.04.2.05.3.11.63.21,1.26.3,1.89.03.19.05.37.08.56.07.45.13.9.19,1.35.03.24.06.49.09.73.05.4.1.79.15,1.19.03.26.06.53.09.8.01.13.03.26.04.38v20.13c-.04.28-.07.56-.11.84-.02.14-.04.28-.06.42-.06.43-.13.86-.19,1.29,0,0,0,.01,0,.02-.07.44-.14.88-.22,1.32-.02.14-.05.29-.08.43-.05.3-.11.61-.17.92-.03.16-.06.32-.09.47-.06.31-.12.62-.18.93-.03.14-.06.28-.08.42-.09.43-.18.86-.27,1.3,0,.01,0,.02,0,.04-.1.44-.2.89-.3,1.33-.03.14-.07.28-.1.42-.07.31-.15.62-.22.93-.04.16-.08.31-.11.47-.08.31-.15.62-.23.93-.04.14-.07.28-.11.42-.11.43-.22.87-.34,1.3,0,.01,0,.02,0,.03-.12.44-.24.89-.37,1.33-.04.13-.07.26-.11.39-.09.32-.18.63-.27.95-.04.15-.09.29-.13.44-.09.32-.19.63-.28.94-.04.13-.08.26-.12.39-.27.88-.54,1.75-.82,2.61-.01.04-.02.07-.04.11h-39.15c6.57-6.11,11.13-19.42,11.13-34.87Zm-99.89-80.19c6.78,10.28,18.85,17.12,32.63,17.12h0c.49,0,.98-.01,1.47-.03.15,0,.31-.01.46-.02.34-.02.68-.04,1.02-.06.17-.01.34-.02.51-.04.34-.03.68-.06,1.03-.1.14-.02.29-.03.43-.05.48-.06.95-.12,1.42-.2.05,0,.1-.02.15-.03.42-.07.84-.14,1.26-.22.15-.03.3-.06.45-.09.32-.07.64-.13.96-.21.16-.04.32-.07.48-.11.33-.08.66-.17.99-.25.13-.03.26-.07.39-.1.45-.13.9-.26,1.34-.4.07-.02.15-.05.22-.07.37-.12.74-.25,1.1-.38.15-.05.29-.11.43-.16.3-.11.59-.22.89-.34.15-.06.3-.12.44-.18.31-.13.62-.26.93-.4.11-.05.23-.1.34-.15.41-.19.83-.39,1.23-.59.09-.04.17-.09.26-.13.32-.16.64-.33.95-.5.13-.07.27-.15.4-.22.27-.15.54-.31.81-.47.13-.08.27-.16.4-.24.29-.18.59-.36.88-.55.09-.06.19-.12.28-.18.38-.25.75-.5,1.11-.76.09-.06.18-.13.27-.2.28-.2.55-.4.82-.61.12-.09.24-.19.36-.28.24-.19.48-.38.72-.58.12-.1.23-.19.35-.29.27-.23.54-.46.81-.7.07-.06.14-.12.21-.18.33-.3.65-.6.97-.91.09-.08.17-.17.25-.25.23-.23.46-.46.69-.7.11-.11.21-.22.31-.33.21-.22.42-.45.62-.68.1-.11.19-.22.29-.33.25-.28.49-.57.73-.86.04-.05.09-.1.13-.16.28-.34.55-.69.81-1.05.07-.1.15-.2.22-.3.19-.26.38-.52.56-.78.09-.12.17-.25.26-.37.07-.11.15-.21.22-.32,3.2-4.85,9.86-6.5,15.22-3.86.16.08.33.16.49.24.22.11.44.22.66.34.3.16.61.32.91.48.22.11.43.23.65.35.31.17.61.33.92.5.21.12.41.23.62.35.32.18.64.37.96.55.18.11.37.21.55.32.38.23.77.46,1.15.69.12.07.23.14.35.21.5.3.99.61,1.48.93.12.08.25.16.37.24.36.24.73.47,1.09.71.18.12.36.24.53.36.3.21.61.41.91.62.19.13.38.27.58.4.28.2.57.4.85.6.2.14.39.28.58.43.28.2.55.41.83.61.19.15.39.29.58.44.27.21.55.42.82.63.19.15.38.29.57.44.28.22.55.44.82.66.18.14.36.29.53.43.29.24.59.49.88.73.15.13.3.25.46.38.38.33.76.65,1.14.98.06.05.12.1.18.15.43.38.87.77,1.29,1.17.13.11.25.23.37.35.3.28.6.56.9.84.16.15.31.3.47.45.26.25.52.5.78.76.17.17.33.33.5.5.24.24.49.49.73.74.17.17.34.35.51.52.24.25.47.49.71.74.17.18.33.35.5.53.23.25.47.51.7.77.16.18.32.35.48.53.24.27.47.54.71.81.15.17.3.34.44.51.26.3.51.6.77.91.12.14.24.28.36.43.37.45.74.9,1.1,1.36,0,0,.01.02.02.03.36.45.71.9,1.06,1.35.12.15.23.31.35.46.24.31.47.63.71.94.13.18.27.37.4.55.21.29.42.58.63.88.14.2.28.39.41.59.2.28.4.57.59.86.14.2.28.41.41.61.19.29.38.57.57.86.13.21.27.41.4.62.19.3.38.59.56.89.13.2.25.41.38.61.19.31.38.63.57.95.11.19.23.38.34.57.21.36.42.72.63,1.09.09.15.17.3.26.45.29.52.58,1.03.86,1.56.05.09.09.18.14.27.23.43.47.87.69,1.31.09.18.19.37.28.55.18.35.35.7.53,1.05.1.21.21.42.31.64.16.33.32.65.47.98.11.22.21.45.31.67.15.32.3.64.44.97.1.23.21.46.31.69.14.32.28.65.42.98.1.23.2.46.29.69.14.33.28.67.41,1.01.09.23.18.45.27.68.14.36.28.72.42,1.08.08.21.16.41.24.62.16.43.32.87.48,1.3.05.14.1.28.15.41.2.58.4,1.15.6,1.73.05.14.09.29.14.44.09.28.18.56.27.83h-34.53c-3.09-6-7.19-9.93-11.74-10.7,3.66-2.64,7.39-4.85,10.66-6.59,4.76-2.53,5.72-8.95,1.9-12.77l-2.94-2.94c-2.26-2.26-5.64-2.96-8.62-1.8-15.15,5.91-25.8,22.72-30.49,31.46-.57,1.06-.88,2.21-.94,3.36-5.67.2-10.22,4.87-10.22,10.58v6.81h-18.03v-6.81c0-5.72-4.55-10.38-10.22-10.58-.07-1.15-.37-2.3-.94-3.36-4.69-8.74-15.33-25.55-30.49-31.46-2.98-1.16-6.36-.46-8.62,1.8l-2.94,2.94c-3.82,3.82-2.86,10.24,1.9,12.77,3.26,1.74,6.99,3.94,10.65,6.58-4.55.77-8.64,4.71-11.73,10.7h-34.53c8.06-25.26,25.44-45.08,48.01-56.43,5.37-2.7,12.09-1.06,15.31,3.82Zm-67.66,93.66v-20.1c.36-3.46.87-6.85,1.54-10.16h33.43c-.25,1.04-.49,2.11-.69,3.2l13.17,8.78-14.41,4.8c0,15.45,4.56,28.76,11.13,34.87h-39.14c-2.25-6.94-4.12-14.36-5.03-21.4Zm71.47-13.47c0-6.02-.69-11.72-1.93-16.79h10.94v51.66h-20.15c6.57-6.11,11.13-19.42,11.13-34.87Zm-91.28,51.08c-8.61,0-15.62-8.08-15.62-18.02s7.01-18.02,15.62-18.02c1.74,0,3.42.34,4.98.95-.12,2.34-.18,4.69-.18,7.06,0,1.47.03,2.92.08,4.36-2.84-2-6.45-2.94-9.68-1.55,3.61,1.99,6.5,4.78,8.76,8.1.54.79,1.03,1.62,1.5,2.47.42,4.3,1.06,8.47,1.88,12.53-2.19,1.35-4.69,2.12-7.34,2.12Zm169.31,29.52c-4.56,4.14-10.75,6.11-16.87,6.01-1.19,2.4-2.94,4.51-4.98,6.16-7.67,6.11-18.45,7.15-27.32,3.26-4.79,2.15-10.05,2.75-15.24,2.02-6.88-.94-13.98-4.9-17.2-11.25-4.74.09-9.48-1.05-13.58-3.46-3.46-2.07-6.48-5.15-7.84-9.03-2.1-5.7.38-11.96,5.58-14.83-4.28,5.2-4.17,11.93,1.43,15.94,4.66,3.3,11.07,3.91,16.44,2.37l3.49-1.04,1.7,4.15c3.53,7.71,15.8,8.66,22.42,4.59l2.84-1.69,2.7,1.69c3.64,2.26,8.55,2.89,12.81,2.11,3.96-.71,8.15-2.84,9.78-6.65l1.62-3.98,3.37.98c6.31,1.8,14.05.85,18.71-4.11,3.03-3.26,3.49-7.88,1.34-12.12,2.39,2.06,3.85,5.34,3.79,8.55-.04,3.95-2.13,7.66-4.98,10.32Zm41.73-33.96c-.04.09-.07.18-.11.27-.13.32-.26.63-.4.94-.03.06-.05.12-.08.18-.16.38-.32.75-.48,1.12-2.22,5.1-8.11,7.84-13.75,6.43-17.67-4.44-36.87-7.37-57.04-8.52-1.13,8.34-9.24,14.81-19.08,14.81s-17.94-6.47-19.08-14.81c-20.17,1.15-39.37,4.08-57.04,8.52-5.64,1.42-11.53-1.33-13.75-6.43-.49-1.12-.98-2.3-1.46-3.5h71.71c5.85,0,10.6-4.76,10.6-10.6v-30.83h18.03v30.83c0,5.85,4.76,10.6,10.6,10.6h71.72s0,.02-.01.04c-.13.32-.26.63-.39.95Zm29.17,4.43c-2.65,0-5.15-.77-7.34-2.12,1.19-5.85,1.97-11.95,2.32-18.29,3.07-1.84,6.62-3.18,9.82-4.82-3.01-1.45-6.45-1.65-9.64-.79,0-.67.03-1.34.03-2.02,0-1.1-.01-2.19-.04-3.28-.03-1.27-.08-2.53-.14-3.78,1.57-.61,3.24-.95,4.98-.95,8.61,0,15.62,8.08,15.62,18.02s-7.01,18.02-15.62,18.02Z"/><g class="cls-1"><path class="cls-4" d="m36.32,84.17c-13.67-.21-26.08-10.43-29.97-23.82-4.15-14.31,2.05-30.17,15.37-38.42,5.08,16.38,8.04,24.46,8.9,24.24,1.15-.29,6.23-15.93-.24-46.17,32.77,9.88,42.71,36.21,38.4,56.23-2.71,12.61-15.31,28.21-32.47,27.94Z"/></g></g><g class="cls-1"><path class="cls-3" d="m274.48,190.25c-1.91,0-3.77.27-5.55.76-.17-1.64-.36-3.27-.58-4.88-.58-4.2-1.35-8.33-2.3-12.39-1.18-5.07-2.65-10.01-4.37-14.82-.34-.96-.7-1.92-1.06-2.86-1.09-2.85-2.28-5.64-3.55-8.38-.85-1.82-1.74-3.62-2.66-5.39-1.85-3.54-3.85-6.98-6-10.3-1.07-1.66-2.18-3.29-3.32-4.89-1.71-2.4-3.5-4.73-5.36-6.98-1.24-1.5-2.51-2.97-3.82-4.41-2.61-2.87-5.34-5.6-8.19-8.19-1.42-1.29-2.88-2.55-4.36-3.77-1.48-1.22-2.99-2.4-4.52-3.54-.77-.57-1.54-1.13-2.32-1.68-1.56-1.1-3.14-2.16-4.75-3.18-5.63-3.57-11.57-6.62-17.75-9.11-1.77-.71-3.55-1.38-5.36-2-10.83-3.71-22.35-5.71-34.29-5.71-17.47,0-34.02,4.28-48.85,11.93l.08-1.02c.72-9.48-11.04-11.58-21.84-3.7-.18.13-.36.27-.54.4l-.53.41c-2.81-1.83-5.94-4.14-9.24-7.03-12.5-10.97-17.02-21.17-17.49-22.3l-2.39-5.69-11.23,14.55.63,1.84c.67,1.94,4.66,12.24,17.5,24.05,2.5,2.3,4.94,4.28,7.26,5.99l-.71.54c-.18.14-.36.27-.53.41-10.47,8.31-11.58,20.21-2.25,22.04l3.57.7c-15.16,18.95-25.25,42.92-27.97,69.36-1.78-.49-3.64-.76-5.55-.76-12.58,0-22.82,11.31-22.82,25.22s10.24,25.22,22.82,25.22c3.21,0,6.27-.74,9.05-2.07,13.56,50.3,58.15,80.15,111.06,80.15,16.92,0,32.98-3.05,47.45-8.84,1.7-.68,3.38-1.4,5.04-2.16,3.31-1.51,6.54-3.18,9.66-4.99,3.9-2.26,7.64-4.75,11.2-7.46,5.69-4.34,10.93-9.24,15.63-14.67,2.35-2.72,4.57-5.56,6.64-8.54.52-.74,1.03-1.5,1.53-2.26,3.5-5.32,6.55-11.04,9.1-17.12,1.46-3.48,2.75-7.07,3.88-10.79.33-1.1.64-2.2.94-3.32,2.78,1.33,5.83,2.07,9.05,2.07,12.58,0,22.82-11.31,22.82-25.22s-10.24-25.22-22.82-25.22Zm-100.3-24.63h10.95c-.25,1.04-.49,2.11-.69,3.2l13.17,8.78-14.41,4.8c0,15.45,4.56,28.76,11.13,34.87h-20.15v-51.66Zm47.45,16.79c0-6.02-.69-11.72-1.93-16.79h33.42c.05.24.1.48.14.72.04.22.09.44.13.65.1.52.19,1.05.28,1.57.02.1.04.2.05.3.11.63.21,1.26.3,1.89.03.19.05.37.08.56.07.45.13.9.19,1.35.03.24.06.49.09.73.05.4.1.79.15,1.19.03.26.06.53.09.8.01.13.03.26.04.38v20.13c-.04.28-.07.56-.11.84-.02.14-.04.28-.06.42-.06.43-.13.86-.19,1.29,0,0,0,.01,0,.02-.07.44-.14.88-.22,1.32-.02.14-.05.29-.08.43-.05.3-.11.61-.17.92-.03.16-.06.32-.09.47-.06.31-.12.62-.18.93-.03.14-.06.28-.08.42-.09.43-.18.86-.27,1.3,0,.01,0,.02,0,.04-.1.44-.2.89-.3,1.33-.03.14-.07.28-.1.42-.07.31-.15.62-.22.93-.04.16-.08.31-.11.47-.08.31-.15.62-.23.93-.04.14-.07.28-.11.42-.11.43-.22.87-.34,1.3,0,.01,0,.02,0,.03-.12.44-.24.89-.37,1.33-.04.13-.07.26-.11.39-.09.32-.18.63-.27.95-.04.15-.09.29-.13.44-.09.32-.19.63-.28.94-.04.13-.08.26-.12.39-.27.88-.54,1.75-.82,2.61-.01.04-.02.07-.04.11h-39.15c6.57-6.11,11.13-19.42,11.13-34.87Zm-99.89-80.19c6.78,10.28,18.85,17.12,32.63,17.12h0c.49,0,.98-.01,1.47-.03.15,0,.31-.01.46-.02.34-.02.68-.04,1.02-.06.17-.01.34-.02.51-.04.34-.03.68-.06,1.03-.1.14-.02.29-.03.43-.05.48-.06.95-.12,1.42-.2.05,0,.1-.02.15-.03.42-.07.84-.14,1.26-.22.15-.03.3-.06.45-.09.32-.07.64-.13.96-.21.16-.04.32-.07.48-.11.33-.08.66-.17.99-.25.13-.03.26-.07.39-.1.45-.13.9-.26,1.34-.4.07-.02.15-.05.22-.07.37-.12.74-.25,1.1-.38.15-.05.29-.11.43-.16.3-.11.59-.22.89-.34.15-.06.3-.12.44-.18.31-.13.62-.26.93-.4.11-.05.23-.1.34-.15.41-.19.83-.39,1.23-.59.09-.04.17-.09.26-.13.32-.16.64-.33.95-.5.13-.07.27-.15.4-.22.27-.15.54-.31.81-.47.13-.08.27-.16.4-.24.29-.18.59-.36.88-.55.09-.06.19-.12.28-.18.38-.25.75-.5,1.11-.76.09-.06.18-.13.27-.2.28-.2.55-.4.82-.61.12-.09.24-.19.36-.28.24-.19.48-.38.72-.58.12-.1.23-.19.35-.29.27-.23.54-.46.81-.7.07-.06.14-.12.21-.18.33-.3.65-.6.97-.91.09-.08.17-.17.25-.25.23-.23.46-.46.69-.7.11-.11.21-.22.31-.33.21-.22.42-.45.62-.68.1-.11.19-.22.29-.33.25-.28.49-.57.73-.86.04-.05.09-.1.13-.16.28-.34.55-.69.81-1.05.07-.1.15-.2.22-.3.19-.26.38-.52.56-.78.09-.12.17-.25.26-.37.07-.11.15-.21.22-.32,3.2-4.85,9.86-6.5,15.22-3.86.16.08.33.16.49.24.22.11.44.22.66.34.3.16.61.32.91.48.22.11.43.23.65.35.31.17.61.33.92.5.21.12.41.23.62.35.32.18.64.37.96.55.18.11.37.21.55.32.38.23.77.46,1.15.69.12.07.23.14.35.21.5.3.99.61,1.48.93.12.08.25.16.37.24.36.24.73.47,1.09.71.18.12.36.24.53.36.3.21.61.41.91.62.19.13.38.27.58.4.28.2.57.4.85.6.2.14.39.28.58.43.28.2.55.41.83.61.19.15.39.29.58.44.27.21.55.42.82.63.19.15.38.29.57.44.28.22.55.44.82.66.18.14.36.29.53.43.29.24.59.49.88.73.15.13.3.25.46.38.38.33.76.65,1.14.98.06.05.12.1.18.15.43.38.87.77,1.29,1.17.13.11.25.23.37.35.3.28.6.56.9.84.16.15.31.3.47.45.26.25.52.5.78.76.17.17.33.33.5.5.24.24.49.49.73.74.17.17.34.35.51.52.24.25.47.49.71.74.17.18.33.35.5.53.23.25.47.51.7.77.16.18.32.35.48.53.24.27.47.54.71.81.15.17.3.34.44.51.26.3.51.6.77.91.12.14.24.28.36.43.37.45.74.9,1.1,1.36,0,0,.01.02.02.03.36.45.71.9,1.06,1.35.12.15.23.31.35.46.24.31.47.63.71.94.13.18.27.37.4.55.21.29.42.58.63.88.14.2.28.39.41.59.2.28.4.57.59.86.14.2.28.41.41.61.19.29.38.57.57.86.13.21.27.41.4.62.19.3.38.59.56.89.13.2.25.41.38.61.19.31.38.63.57.95.11.19.23.38.34.57.21.36.42.72.63,1.09.09.15.17.3.26.45.29.52.58,1.03.86,1.56.05.09.09.18.14.27.23.43.47.87.69,1.31.09.18.19.37.28.55.18.35.35.7.53,1.05.1.21.21.42.31.64.16.33.32.65.47.98.11.22.21.45.31.67.15.32.3.64.44.97.1.23.21.46.31.69.14.32.28.65.42.98.1.23.2.46.29.69.14.33.28.67.41,1.01.09.23.18.45.27.68.14.36.28.72.42,1.08.08.21.16.41.24.62.16.43.32.87.48,1.3.05.14.1.28.15.41.2.58.4,1.15.6,1.73.05.14.09.29.14.44.09.28.18.56.27.83h-34.53c-3.09-6-7.19-9.93-11.74-10.7,3.66-2.64,7.39-4.85,10.66-6.59,4.76-2.53,5.72-8.95,1.9-12.77l-2.94-2.94c-2.26-2.26-5.64-2.96-8.62-1.8-15.15,5.91-25.8,22.72-30.49,31.46-.57,1.06-.88,2.21-.94,3.36-5.67.2-10.22,4.87-10.22,10.58v6.81h-18.03v-6.81c0-5.72-4.55-10.38-10.22-10.58-.07-1.15-.37-2.3-.94-3.36-4.69-8.74-15.33-25.55-30.49-31.46-2.98-1.16-6.36-.46-8.62,1.8l-2.94,2.94c-3.82,3.82-2.86,10.24,1.9,12.77,3.26,1.74,6.99,3.94,10.65,6.58-4.55.77-8.64,4.71-11.73,10.7h-34.53c8.06-25.26,25.44-45.08,48.01-56.43,5.37-2.7,12.09-1.06,15.31,3.82Zm-67.66,93.66v-20.1c.36-3.46.87-6.85,1.54-10.16h33.43c-.25,1.04-.49,2.11-.69,3.2l13.17,8.78-14.41,4.8c0,15.45,4.56,28.76,11.13,34.87h-39.14c-2.25-6.94-4.12-14.36-5.03-21.4Zm71.47-13.47c0-6.02-.69-11.72-1.93-16.79h10.94v51.66h-20.15c6.57-6.11,11.13-19.42,11.13-34.87Zm-91.28,51.08c-8.61,0-15.62-8.08-15.62-18.02s7.01-18.02,15.62-18.02c1.74,0,3.42.34,4.98.95-.12,2.34-.18,4.69-.18,7.06,0,1.47.03,2.92.08,4.36-2.84-2-6.45-2.94-9.68-1.55,3.61,1.99,6.5,4.78,8.76,8.1.54.79,1.03,1.62,1.5,2.47.42,4.3,1.06,8.47,1.88,12.53-2.19,1.35-4.69,2.12-7.34,2.12Zm169.31,29.52c-4.56,4.14-10.75,6.11-16.87,6.01-1.19,2.4-2.94,4.51-4.98,6.16-7.67,6.11-18.45,7.15-27.32,3.26-4.79,2.15-10.05,2.75-15.24,2.02-6.88-.94-13.98-4.9-17.2-11.25-4.74.09-9.48-1.05-13.58-3.46-3.46-2.07-6.48-5.15-7.84-9.03-2.1-5.7.38-11.96,5.58-14.83-4.28,5.2-4.17,11.93,1.43,15.94,4.66,3.3,11.07,3.91,16.44,2.37l3.49-1.04,1.7,4.15c3.53,7.71,15.8,8.66,22.42,4.59l2.84-1.69,2.7,1.69c3.64,2.26,8.55,2.89,12.81,2.11,3.96-.71,8.15-2.84,9.78-6.65l1.62-3.98,3.37.98c6.31,1.8,14.05.85,18.71-4.11,3.03-3.26,3.49-7.88,1.34-12.12,2.39,2.06,3.85,5.34,3.79,8.55-.04,3.95-2.13,7.66-4.98,10.32Zm41.73-33.96c-.04.09-.07.18-.11.27-.13.32-.26.63-.4.94-.03.06-.05.12-.08.18-.16.38-.32.75-.48,1.12-2.22,5.1-8.11,7.84-13.75,6.43-17.67-4.44-36.87-7.37-57.04-8.52-1.13,8.34-9.24,14.81-19.08,14.81s-17.94-6.47-19.08-14.81c-20.17,1.15-39.37,4.08-57.04,8.52-5.64,1.42-11.53-1.33-13.75-6.43-.49-1.12-.98-2.3-1.46-3.5h71.71c5.85,0,10.6-4.76,10.6-10.6v-30.83h18.03v30.83c0,5.85,4.76,10.6,10.6,10.6h71.72s0,.02-.01.04c-.13.32-.26.63-.39.95Zm29.17,4.43c-2.65,0-5.15-.77-7.34-2.12,1.19-5.85,1.97-11.95,2.32-18.29,3.07-1.84,6.62-3.18,9.82-4.82-3.01-1.45-6.45-1.65-9.64-.79,0-.67.03-1.34.03-2.02,0-1.1-.01-2.19-.04-3.28-.03-1.27-.08-2.53-.14-3.78,1.57-.61,3.24-.95,4.98-.95,8.61,0,15.62,8.08,15.62,18.02s-7.01,18.02-15.62,18.02Z"/><g class="cls-1"><path class="cls-3" d="m47.76,84.17c-13.67-.21-26.08-10.43-29.97-23.82-4.15-14.31,2.05-30.17,15.37-38.42,5.08,16.38,8.04,24.46,8.9,24.24,1.15-.29,6.23-15.93-.24-46.17,32.77,9.88,42.71,36.21,38.4,56.23-2.71,12.61-15.31,28.21-32.47,27.94Z"/></g></g></g></g></g></svg>