<?xml version="1.0" encoding="UTF-8"?><svg id="Camada_2" xmlns="http://www.w3.org/2000/svg" viewBox="0 0 191.16 217.76"><defs><style>.cls-1{stroke:#fff;stroke-miterlimit:10;}.cls-1,.cls-2{fill:#fff;}.cls-2{stroke-width:0px;}</style></defs><g id="Camada_1-2"><path class="cls-2" d="m173.09,126.4c-.37-2.45-.84-4.9-1.4-7.29-.39-1.69-.84-3.39-1.33-5.05l-.04-.13s-1.53-4.69-1.58-4.82c-.23-.65-.47-1.29-.72-1.93-.73-1.9-1.54-3.81-2.4-5.66-.57-1.22-1.17-2.45-1.8-3.64-1.24-2.38-2.6-4.72-4.06-6.97-.72-1.12-1.48-2.23-2.25-3.31-1.15-1.61-2.37-3.21-3.63-4.73-.83-1.01-1.7-2.01-2.59-2.99-1.76-1.94-3.63-3.81-5.56-5.57-.96-.87-1.96-1.73-2.96-2.56-.99-.82-2.03-1.63-3.08-2.41-.52-.39-1.05-.77-1.58-1.14-1.07-.75-2.16-1.48-3.24-2.17-3.86-2.44-7.94-4.54-12.13-6.23-1.21-.49-2.44-.95-3.67-1.37-7.58-2.59-15.48-3.91-23.49-3.91-9.72,0-19.13,1.9-28.07,5.65-.17-.21-.34-.42-.53-.62-1.96-2.12-4.86-3.29-8.15-3.29-2.7,0-6.77.78-11.68,4.15-1.6-.96-2.91-1.96-3.9-2.83,5.14-4.66,7.04-10.18,7.75-13.44,3.24-15.05-4.12-34.53-27.94-41.71L14.94,0l1.77,8.28c.45,2.12.81,4.12,1.09,5.99l-4.36,2.7C3.1,23.38-1.82,35.78,1.47,47.12c2.55,8.78,11.99,17.86,23.39,17.86.18,0,.36,0,.54,0,2.2,2.59,5.29,5.36,8.02,7.54-4.42,5.33-4.69,9.52-3.95,12.3.49,1.84,1.51,3.38,2.94,4.55-4.17,6.15-7.55,12.87-10.09,20.03-.56,1.47-1.42,4.35-1.52,4.69-1.18,4.02-2.1,8.14-2.73,12.31-10.05.5-18.08,9.49-18.08,20.47s8.51,20.49,18.96,20.49c.75,0,1.5-.05,2.24-.14,10.29,30.88,38.94,50.54,74.38,50.54,11.37,0,22.18-2.02,32.13-6,1.16-.46,2.31-.96,3.44-1.47,2.26-1.03,4.47-2.17,6.59-3.4,2.66-1.54,5.24-3.26,7.66-5.11,3.92-2.98,7.53-6.37,10.72-10.06,1.61-1.87,3.15-3.84,4.56-5.87.35-.51.7-1.03,1.05-1.55,2.42-3.68,4.52-7.63,6.24-11.74.73-1.74,1.4-3.53,2.01-5.35.74.09,1.48.14,2.23.14,10.46,0,18.96-9.19,18.96-20.49s-8.03-19.97-18.08-20.47Zm-.89,35.97c-2,0-3.9-.47-5.62-1.31-.24.91-.49,1.81-.75,2.7-.72,2.37-1.54,4.67-2.47,6.88-1.63,3.88-3.58,7.53-5.81,10.92-.32.48-.64.96-.97,1.44-1.32,1.9-2.74,3.72-4.23,5.45-3,3.46-6.34,6.59-9.97,9.36-2.27,1.73-4.66,3.32-7.14,4.76-1.99,1.15-4.04,2.22-6.16,3.18-1.06.48-2.13.94-3.22,1.38-9.23,3.69-19.48,5.64-30.27,5.64-33.96,0-62.54-19.27-71-51.71-1.72.84-3.62,1.31-5.62,1.31-7.7,0-13.96-6.95-13.96-15.49s6.26-15.49,13.96-15.49c1.2,0,2.37.17,3.48.49.54-5.65,1.62-11.12,3.16-16.36,0,0,.91-3.07,1.41-4.37,3.15-8.91,7.69-17.06,13.33-24.11l-2.28-.45c-5.27-1.03-6.06-6.8,3.01-14.69-3.16-1.85-11.17-8.41-13.35-12.17-9.57,1.85-19.14-6.01-21.46-13.98-2.65-9.13,1.31-19.24,9.8-24.51,3.24,10.45,5.13,15.6,5.68,15.46.73-.19,3.98-10.16-.15-29.45,20.9,6.3,27.25,23.1,24.5,35.87-.82,3.79-3.27,9.56-9.81,13.42.5,2.52,5.37,6.99,11.33,9.82,9.57-8.06,17.26-5.39,16.84.14l-.05.65c9.46-4.88,20.02-7.61,31.17-7.61,7.62,0,14.96,1.27,21.87,3.64,1.15.39,2.29.82,3.42,1.27,3.94,1.59,7.73,3.54,11.32,5.81,1.03.65,2.04,1.33,3.03,2.03.5.35.99.71,1.48,1.07.98.73,1.94,1.48,2.88,2.26.94.78,1.87,1.58,2.78,2.4,1.82,1.65,3.56,3.39,5.22,5.23.83.92,1.64,1.85,2.44,2.81,1.19,1.44,2.33,2.92,3.42,4.45.73,1.02,1.43,2.06,2.12,3.12,1.37,2.12,2.64,4.31,3.83,6.57.59,1.13,1.16,2.28,1.7,3.44.81,1.75,1.57,3.53,2.27,5.34.23.61.46,1.21.68,1.83.04.11,1.53,4.68,1.53,4.68.46,1.57.88,3.16,1.26,4.77.61,2.59,1.1,5.22,1.47,7.9.17,1.23.31,2.47.43,3.71,1.11-.32,2.28-.49,3.48-.49,7.7,0,13.96,6.95,13.96,15.49s-6.26,15.49-13.96,15.49Z"/><path class="cls-1" d="m65,72.18c3.43-1.72,7.72-.67,9.77,2.44,4.32,6.56,12.03,10.92,20.82,10.92h0c.31,0,.63,0,.94-.02.1,0,.2,0,.29-.01.22-.01.44-.02.65-.04.11,0,.22-.02.32-.03.22-.02.44-.04.65-.06.09,0,.18-.02.28-.03.3-.04.61-.08.91-.13.03,0,.06-.01.1-.02.27-.04.54-.09.8-.14.1-.02.19-.04.29-.06.21-.04.41-.09.61-.13.1-.02.2-.05.31-.07.21-.05.42-.11.63-.16.08-.02.17-.04.25-.07.29-.08.57-.17.85-.26.05-.02.09-.03.14-.05.24-.08.47-.16.7-.24.09-.03.18-.07.28-.1.19-.07.38-.14.57-.22.09-.04.19-.08.28-.12.2-.08.4-.17.6-.26.07-.03.14-.06.22-.1.26-.12.53-.25.79-.38.06-.03.11-.06.17-.09.2-.1.41-.21.61-.32.09-.05.17-.1.26-.14.17-.1.35-.2.52-.3.09-.05.17-.1.25-.15.19-.11.37-.23.56-.35.06-.04.12-.07.18-.11.24-.16.48-.32.71-.48.06-.04.11-.08.17-.13.18-.13.35-.26.52-.39.08-.06.16-.12.23-.18.15-.12.31-.24.46-.37.07-.06.15-.12.22-.18.17-.15.34-.3.51-.45.04-.04.09-.08.13-.12.21-.19.42-.38.62-.58.05-.05.11-.11.16-.16.15-.15.3-.3.44-.45.07-.07.13-.14.2-.21.13-.14.27-.29.4-.43.06-.07.12-.14.18-.21.16-.18.31-.36.46-.55.03-.03.06-.07.08-.1.18-.22.35-.44.52-.67.05-.06.09-.13.14-.19.12-.17.24-.33.36-.5.05-.08.11-.16.16-.24.05-.07.09-.13.14-.2,2.04-3.09,6.29-4.15,9.71-2.46.1.05.21.1.31.16.14.07.28.14.42.22.19.1.39.2.58.31.14.07.28.15.41.22.2.11.39.21.58.32.13.07.26.15.4.22.21.12.41.23.61.35.12.07.24.14.35.2.25.14.49.29.73.44.07.04.15.09.22.13.32.19.63.39.94.59.08.05.16.1.24.15.23.15.46.3.69.45.11.08.23.15.34.23.19.13.39.26.58.4.12.09.25.17.37.26.18.13.36.26.54.39.12.09.25.18.37.27.18.13.35.26.53.39.12.09.25.19.37.28.17.13.35.27.52.4.12.09.24.19.36.28.18.14.35.28.52.42.11.09.23.18.34.28.19.15.37.31.56.47.1.08.19.16.29.24.24.21.48.42.72.63.04.03.08.07.11.1.28.24.55.49.82.74.08.07.16.15.24.22.19.18.38.36.57.54.1.1.2.19.3.29.17.16.33.32.5.48.11.11.21.21.32.32.16.16.31.31.46.47.11.11.22.22.32.33.15.16.3.31.45.47.11.11.21.23.32.34.15.16.3.32.45.49.1.11.2.22.31.34.15.17.3.34.45.51.09.11.19.22.28.32.16.19.33.39.49.58.08.09.15.18.23.27.24.29.47.58.7.87v.02c.24.29.46.57.69.86.07.1.15.2.22.29.15.2.3.4.45.6.09.12.17.23.25.35.13.19.27.37.4.56.09.13.18.25.26.38.13.18.25.36.38.55.09.13.18.26.26.39.12.18.24.37.36.55.09.13.17.26.26.4.12.19.24.38.36.57.08.13.16.26.24.39.12.2.24.4.37.6.07.12.15.24.22.37.14.23.27.46.4.69.05.1.11.19.17.29.19.33.37.66.55.99.03.06.06.11.09.17.15.28.3.55.44.84.06.12.12.23.18.35.11.22.23.44.34.67.07.13.13.27.2.41.1.21.2.42.3.63.07.14.13.29.2.43.1.21.19.41.28.62.07.15.13.29.2.44.09.21.18.42.27.62.06.15.13.29.19.44.09.21.18.43.26.64.06.14.12.29.17.43.09.23.18.46.27.69.05.13.1.26.15.4.1.28.2.55.3.83.03.09.06.18.1.26.13.37.26.74.38,1.11.03.09.06.19.09.28.09.28.18.56.27.84.04.14.08.28.13.42.02.05.03.11.05.17h-48.97c-3.24,0-5.88,2.64-5.88,5.87v5.53h-13.28v-5.53c0-3.24-2.64-5.87-5.87-5.87h-48.97c5.01-16.54,16.24-29.52,30.9-36.89Z"/><path class="cls-1" d="m159.93,127.63c0-.14,0-.28-.01-.42,0-.29-.01-.57-.02-.86,0-.16-.01-.33-.02-.49-.01-.26-.02-.52-.04-.78,0-.17-.02-.35-.03-.52-.01-.25-.03-.5-.05-.74-.01-.18-.03-.35-.04-.53-.02-.24-.04-.49-.06-.73-.02-.17-.03-.35-.05-.52-.02-.24-.05-.49-.08-.73-.02-.17-.04-.34-.06-.51-.03-.25-.06-.51-.09-.76-.02-.15-.04-.31-.06-.47-.04-.29-.08-.57-.12-.86-.02-.12-.03-.24-.05-.36-.06-.4-.13-.81-.19-1.21-.01-.06-.02-.13-.03-.19-.06-.34-.12-.67-.18-1-.03-.14-.05-.28-.08-.42-.05-.26-.1-.52-.15-.77-.03-.16-.07-.31-.1-.47,0-.04-.02-.07-.02-.11h-50.3c-.42,0-.77.35-.77.77v12.3l-5.11.04h-13.28l-5.11-.05v-12.29c0-.42-.35-.77-.77-.77h-50.3c-1.01,4.68-1.55,9.6-1.55,14.74,0,6.21,1.7,13.49,3.88,20l1.86,5.11c.43,1.09.86,2.13,1.29,3.12,1.42,3.25,5.17,5,8.77,4.1,10.23-2.57,21.27-4.34,32.84-5.19,1.03-.01,2.05-.07,3.08-.21.16,0,.31-.02.47-.03.72,5.32,5.89,9.45,12.17,9.45s11.45-4.13,12.17-9.45c12.87.73,25.11,2.6,36.39,5.43,3.6.9,7.36-.85,8.77-4.1.1-.24.2-.47.31-.72.02-.04.03-.08.05-.12.08-.2.17-.4.25-.6.02-.06.05-.11.07-.17.08-.2.16-.4.25-.6.02-.05.04-.09.06-.14.1-.25.2-.51.31-.77l1.86-5.11s.03-.08.04-.13c.07-.2.13-.4.2-.6.02-.08.05-.15.07-.23.18-.55.35-1.11.52-1.67.02-.08.05-.16.07-.25.06-.2.12-.4.18-.6.03-.09.05-.19.08-.28.06-.2.12-.4.17-.6.02-.08.05-.17.07-.25.08-.28.16-.57.23-.85,0,0,0-.01,0-.02.07-.28.15-.55.22-.83.02-.09.05-.18.07-.27.05-.2.1-.4.15-.59.02-.1.05-.2.07-.3.05-.2.09-.4.14-.6.02-.09.04-.18.06-.27.07-.28.13-.57.19-.85,0,0,0-.02,0-.02.06-.28.12-.55.17-.83.02-.09.04-.18.05-.27.04-.2.08-.39.12-.59.02-.1.04-.2.06-.3.04-.2.07-.39.11-.58.02-.09.03-.18.05-.27.05-.28.1-.56.14-.84h0c.04-.29.09-.56.12-.84.01-.09.03-.18.04-.27.03-.19.05-.39.08-.58.01-.1.02-.2.04-.29.02-.19.05-.39.07-.58,0-.09.02-.17.03-.26.03-.27.06-.55.08-.82h0c.02-.27.04-.54.06-.81,0-.08.01-.17.02-.25.01-.19.02-.37.03-.56,0-.09,0-.19.01-.28,0-.19.01-.37.02-.55,0-.08,0-.16,0-.25,0-.26,0-.52,0-.78,0-.43,0-.86-.01-1.29Zm-97.19,10.02c-2.93,0-5.3-4.06-5.3-9.08s2.37-9.08,5.3-9.08,5.3,4.06,5.3,9.08-2.37,9.08-5.3,9.08Zm66.42,0c-2.93,0-5.3-4.06-5.3-9.08s2.37-9.08,5.3-9.08,5.3,4.06,5.3,9.08-2.37,9.08-5.3,9.08Z"/></g></svg>