<?xml version="1.0" encoding="UTF-8"?><svg id="Camada_2" xmlns="http://www.w3.org/2000/svg" viewBox="0 0 308.1 483.53"><defs><style>.cls-1{fill:#fff;stroke-width:0px;}</style></defs><g id="Camada_1-2"><path class="cls-1" d="m19.71,378.99c0-11.89,2.1-22.06,6.3-30.5,3.43-6.9,8.11-12.76,13.99-17.6v29.09h-15.51l-2.1,15.16h17.61v11.08h19.36v-72.19H1.52v16.79h20.79c-1.99,1.64-3.95,3.5-5.86,5.6-4.9,5.36-8.86,11.9-11.89,19.59-3.03,7.7-4.55,15.94-4.55,24.72,0,1.79.12,3.61.35,5.48h19.59c-.16-3.27-.23-5.67-.23-7.23Z"/><path class="cls-1" d="m93.93,383.13c5.32,3.15,11.53,4.72,18.6,4.72,3.73,0,7.42-.43,11.08-1.28l-.93-16.91c-2.49.62-4.82.93-7,.93-5.83,0-10.42-1.73-13.76-5.19-3.34-3.46-5.01-8.26-5.01-14.4,0-6.92,1.73-12.03,5.19-15.34,3.46-3.3,8.06-4.96,13.82-4.96,2.25,0,4.24.23,5.95.7l1.52-16.91c-3.11-.78-6.41-1.17-9.91-1.17-8.16,0-14.97,1.81-20.41,5.42-5.44,3.61-9.43,8.24-11.95,13.88-2.53,5.64-3.79,11.6-3.79,17.9,0,7.31,1.44,13.78,4.31,19.42,2.88,5.64,6.98,10.03,12.3,13.18Z"/><path class="cls-1" d="m150.66,359.98l-2.1,15.16h17.61v11.08h19.36v-72.19h-57.84v16.79h20.79c-1.99,1.64-3.95,3.5-5.86,5.6-4.9,5.36-8.86,11.9-11.89,19.59-3.03,7.7-4.55,15.94-4.55,24.72,0,1.79.12,3.61.35,5.48h19.59c-.16-3.27-.23-5.67-.23-7.23,0-11.89,2.1-22.06,6.3-30.5,3.44-6.9,8.11-12.76,13.99-17.6v29.09h-15.51Z"/><path class="cls-1" d="m240.17,349.14c2.99-4.04,4.49-8.63,4.49-13.76s-1.05-9.23-3.15-12.3c-2.1-3.07-5.46-5.32-10.09-6.76-4.63-1.44-10.87-2.16-18.72-2.16h-22.04v72.07h19.36v-56.91h2.57c4.66,0,7.93.8,9.8,2.39,1.87,1.59,2.8,4.1,2.8,7.52s-1.01,5.99-3.03,8.16c-2.02,2.18-5.01,3.58-8.98,4.2v15.51c3.73,5.21,8.38,9.78,13.94,13.7,5.56,3.93,10.67,5.89,15.34,5.89l2.22-18.54c-2.72-.7-5.4-1.75-8.05-3.15-2.64-1.4-5.64-3.42-8.98-6.06,5.36-2.49,9.54-5.75,12.54-9.8Z"/><path class="cls-1" d="m250.26,314.04v16.79h20.79c-1.99,1.64-3.95,3.5-5.86,5.6-4.9,5.36-8.86,11.9-11.89,19.59-3.03,7.7-4.55,15.94-4.55,24.72,0,1.79.12,3.61.35,5.48h19.59c-.16-3.27-.23-5.67-.23-7.23,0-11.89,2.1-22.06,6.3-30.5,3.43-6.9,8.11-12.76,13.99-17.6v29.09h-15.51l-2.1,15.16h17.61v11.08h19.36v-72.19h-57.84Z"/><path class="cls-1" d="m83.03,418.17c-7.23-5.4-16.33-8.1-27.29-8.1h-23.09v72.07h22.97c7.85,0,14.65-1.48,20.41-4.43,5.75-2.95,10.16-7.21,13.24-12.77,3.07-5.56,4.61-12.15,4.61-19.77,0-12.6-3.62-21.59-10.85-27Zm-13.06,43.15c-2.88,3.61-7,5.42-12.36,5.42h-5.6v-41.52h5.95c5.91,0,10.11,1.75,12.59,5.25,2.49,3.5,3.73,8.44,3.73,14.81,0,7.08-1.44,12.42-4.31,16.03Z"/><path class="cls-1" d="m149.91,412.28c-5.33-2.41-11.14-3.62-17.43-3.62-7,0-13.1,1.52-18.31,4.55-5.21,3.03-9.23,7.37-12.07,13-2.84,5.64-4.26,12.26-4.26,19.88,0,8.79,1.67,15.94,5.01,21.46,3.34,5.52,7.68,9.5,13,11.95,5.32,2.45,11.14,3.67,17.43,3.67,6.92,0,13-1.52,18.25-4.55,5.25-3.03,9.29-7.38,12.13-13.06,2.84-5.67,4.26-12.32,4.26-19.94,0-8.79-1.67-15.94-5.01-21.46-3.34-5.52-7.68-9.48-13-11.89Zm-5.42,48.4c-2.57,3.5-6.45,5.25-11.66,5.25s-8.98-1.79-11.54-5.36c-2.57-3.57-3.85-8.55-3.85-14.93s1.28-10.96,3.85-14.46c2.57-3.5,6.45-5.25,11.66-5.25,3.42,0,6.28.84,8.57,2.51,2.29,1.67,4,4.01,5.13,7,1.13,2.99,1.69,6.59,1.69,10.79,0,6.14-1.28,10.96-3.85,14.46Z"/><path class="cls-1" d="m192.18,458.58c0,2.96-.56,5-1.69,6.12-1.13,1.13-2.82,1.69-5.07,1.69-.86,0-1.87-.23-3.03-.7l.12,16.33c2.41.85,5.21,1.28,8.4,1.28,4.74,0,8.59-.74,11.55-2.22,2.95-1.48,5.21-4.02,6.76-7.64,1.55-3.61,2.33-8.65,2.33-15.1v-48.28h-19.36v48.51Z"/><path class="cls-1" d="m256.09,452.28c0,5.44-.87,9.14-2.62,11.08-1.75,1.94-4.3,2.92-7.64,2.92s-5.95-1.17-7.58-3.5c-1.63-2.33-2.45-5.87-2.45-10.61v-42.1h-19.13v43.15c0,8.71,2.16,15.94,6.47,21.69,4.31,5.75,11.53,8.63,21.63,8.63,11.5,0,19.49-2.86,23.96-8.57,4.47-5.71,6.71-13.43,6.71-23.15v-41.75h-19.36v42.22Z"/><path class="cls-1" d="m61.05,74.2c-12.05-.19-23-9.2-26.42-21-3.66-12.62,1.8-26.59,13.55-33.87,4.48,14.44,7.09,21.56,7.84,21.37,1.01-.26,5.49-14.04-.21-40.7,28.89,8.71,37.66,31.92,33.86,49.57-2.39,11.11-13.5,24.87-28.62,24.63Z"/><path class="cls-1" d="m66.15,45.44l2.11,5.02c.42.99,4.4,9.98,15.42,19.66,2.91,2.55,5.67,4.59,8.15,6.2l.47-.36c.16-.12.32-.24.48-.35,3.98-2.9,8.1-4.27,11.51-4.27,4.75,0,8.12,2.66,7.75,7.53l-.07.9c13.08-6.74,27.67-10.52,43.07-10.52,10.53,0,20.68,1.76,30.23,5.03,1.59.54,3.17,1.13,4.72,1.76,5.45,2.2,10.68,4.89,15.65,8.03,1.42.9,2.82,1.83,4.19,2.8.69.49,1.37.98,2.04,1.48,1.35,1.01,2.68,2.05,3.99,3.12,1.3,1.07,2.58,2.18,3.84,3.32,2.51,2.28,4.92,4.69,7.22,7.22,1.15,1.27,2.27,2.56,3.37,3.89,1.64,1.99,3.22,4.04,4.73,6.15,1.01,1.41,1.98,2.84,2.93,4.31,1.89,2.92,3.65,5.95,5.29,9.08.82,1.56,1.6,3.15,2.35,4.76,1.12,2.41,2.17,4.88,3.13,7.38.32.84.63,1.68.94,2.53,1.52,4.23,2.81,8.59,3.85,13.06.84,3.57,1.51,7.22,2.03,10.92.2,1.43.36,2.86.51,4.31,1.57-.44,3.21-.67,4.89-.67,11.09,0,20.11,9.97,20.11,22.23s-9.02,22.23-20.11,22.23c-2.83,0-5.53-.65-7.97-1.83-.27.98-.54,1.96-.83,2.93-.99,3.27-2.13,6.45-3.42,9.51-2.25,5.36-4.94,10.4-8.03,15.09-.44.67-.89,1.33-1.35,1.99-1.83,2.62-3.78,5.14-5.85,7.53-4.14,4.79-8.76,9.11-13.78,12.93-3.14,2.39-6.43,4.58-9.87,6.58-2.75,1.6-5.59,3.06-8.51,4.4-1.46.67-2.94,1.3-4.44,1.9-12.76,5.11-26.92,7.79-41.83,7.79-46.65,0-85.95-26.31-97.91-70.66-2.45,1.17-5.14,1.83-7.98,1.83-11.09,0-20.11-9.97-20.11-22.23s9.02-22.23,20.11-22.23c1.69,0,3.33.23,4.89.67,2.4-23.3,11.3-44.43,24.66-61.14l-3.15-.62c-8.23-1.61-7.25-12.1,1.98-19.43.15-.12.31-.24.47-.36l.63-.48c-2.04-1.51-4.19-3.25-6.4-5.28-11.32-10.41-14.84-19.49-15.43-21.2l-.56-1.62,9.9-12.82m46.35,167.81c-4.59,2.53-6.77,8.05-4.92,13.07,1.19,3.42,3.86,6.14,6.91,7.96,3.48,2.05,7.49,3.05,11.52,3.05.15,0,.3,0,.45,0,2.85,5.6,9.1,9.08,15.17,9.92,1.23.17,2.46.26,3.69.26,3.35,0,6.66-.66,9.75-2.04,3.07,1.34,6.4,2.02,9.72,2.02,5.14,0,10.26-1.62,14.37-4.89,1.8-1.46,3.35-3.31,4.39-5.43.13,0,.27,0,.4,0,5.26,0,10.55-1.74,14.47-5.3,2.52-2.34,4.36-5.61,4.39-9.09.05-2.83-1.24-5.73-3.34-7.54,1.9,3.73,1.5,7.81-1.18,10.68-2.85,3.04-7.01,4.37-11.15,4.37-1.82,0-3.64-.26-5.34-.74l-2.97-.86-1.42,3.5c-1.44,3.35-5.13,5.23-8.62,5.86-1.02.19-2.08.28-3.14.28-2.87,0-5.81-.69-8.15-2.14l-2.38-1.49-2.5,1.49c-2.22,1.37-5.16,2.09-8.12,2.09-4.83,0-9.71-1.92-11.64-6.13l-1.5-3.66-3.08.91c-1.63.47-3.36.71-5.1.71-3.33,0-6.69-.89-9.39-2.8-4.93-3.53-5.04-9.47-1.26-14.05M67.43,35.59l-5.24,6.79-9.9,12.82-1.65,2.13.88,2.55.56,1.62c.93,2.69,4.88,12.32,16.77,23.25.67.62,1.35,1.22,2.04,1.82-4.69,5.14-6.85,11.26-5.58,16.46.74,3.02,2.53,5.42,5.1,6.95-10.85,15.46-17.93,33.49-20.71,52.75-.19,0-.37,0-.56,0-13.85,0-25.11,12.22-25.11,27.23s11.27,27.23,25.11,27.23c1.57,0,3.13-.16,4.65-.47,6.61,20.37,19.11,37.47,36.39,49.68,18.16,12.83,40.58,19.62,64.85,19.62,15.47,0,30.17-2.74,43.69-8.15,1.57-.63,3.13-1.3,4.66-2,3.06-1.4,6.07-2.95,8.94-4.62,3.61-2.1,7.11-4.43,10.39-6.93,5.31-4.05,10.2-8.63,14.53-13.64,2.19-2.53,4.26-5.2,6.17-7.95.48-.69.96-1.4,1.42-2.1,3.27-4.98,6.12-10.33,8.46-15.91,1.09-2.6,2.09-5.29,2.97-8.01,1.52.31,3.07.47,4.64.47,13.85,0,25.11-12.22,25.11-27.23s-11.27-27.23-25.11-27.23c-.18,0-.37,0-.55,0-.52-3.59-1.2-7.19-2.02-10.7-1.08-4.61-2.43-9.19-4.01-13.61-.32-.88-.64-1.76-.98-2.63-1-2.6-2.1-5.19-3.27-7.7-.78-1.67-1.6-3.34-2.45-4.96-1.69-3.24-3.55-6.43-5.52-9.47-.98-1.52-2.01-3.04-3.06-4.5-1.57-2.2-3.23-4.36-4.94-6.43-1.13-1.37-2.32-2.74-3.52-4.06-2.4-2.64-4.94-5.18-7.56-7.56-1.3-1.18-2.66-2.36-4.02-3.48-1.36-1.12-2.77-2.22-4.18-3.27-.71-.53-1.42-1.05-2.14-1.55-1.44-1.01-2.92-2-4.4-2.94-5.25-3.32-10.78-6.16-16.45-8.45-1.64-.66-3.31-1.28-4.97-1.85-10.27-3.52-20.99-5.3-31.85-5.3-13.64,0-26.84,2.76-39.34,8.21-.43-.8-.97-1.55-1.6-2.24-2.32-2.5-5.8-3.88-9.81-3.88-4.04,0-8.4,1.37-12.47,3.89-1.64-1.2-3.26-2.49-4.83-3.87-10.36-9.09-13.96-17.48-14.11-17.84l-2.11-5.02-3.33-7.91h0Z"/><path class="cls-1" d="m182.15,146.01h-9.65v45.54h17.76c-5.79-5.38-9.81-17.12-9.81-30.74l12.71-4.24-11.61-7.74c.18-.96.39-1.91.61-2.83h0Z"/><path class="cls-1" d="m242.09,146.01h-29.46c1.09,4.47,1.7,9.49,1.7,14.8,0,13.62-4.02,25.35-9.81,30.74h34.51s.02-.06.03-.1c.25-.76.49-1.53.72-2.3.03-.11.07-.23.1-.34.08-.28.17-.55.25-.83.04-.13.08-.26.11-.39.08-.28.16-.56.24-.84.03-.12.07-.23.1-.35.11-.39.22-.78.32-1.17,0,0,0-.02,0-.03.1-.38.2-.76.3-1.14.03-.12.06-.25.09-.37.07-.27.14-.55.21-.82.03-.14.07-.28.1-.41.07-.27.13-.55.2-.82.03-.12.06-.25.09-.37.09-.39.18-.78.26-1.18,0-.01,0-.02,0-.03.08-.38.16-.76.24-1.14.03-.12.05-.25.07-.37.05-.27.11-.54.16-.82.03-.14.05-.28.08-.42.05-.27.1-.54.15-.81.02-.13.05-.25.07-.38.07-.39.13-.78.19-1.16,0,0,0-.01,0-.02.06-.38.12-.76.17-1.14.02-.12.03-.25.05-.37.03-.25.07-.5.1-.74v-17.74c-.01-.11-.02-.23-.03-.34-.03-.23-.05-.47-.08-.7-.04-.35-.08-.7-.13-1.05-.03-.21-.05-.43-.08-.64-.05-.4-.11-.79-.17-1.19-.02-.17-.05-.33-.07-.5-.08-.56-.17-1.11-.27-1.67-.02-.09-.03-.18-.05-.27-.08-.46-.16-.93-.25-1.39-.04-.19-.08-.38-.11-.58-.04-.21-.08-.42-.13-.63h0Z"/><path class="cls-1" d="m117.6,85.6c-1.64,0-3.3.37-4.84,1.14-19.89,10-35.22,27.47-42.32,49.75h30.44c2.73-5.29,6.33-8.76,10.34-9.44-3.22-2.32-6.51-4.27-9.39-5.8-4.2-2.23-5.04-7.89-1.67-11.26l2.59-2.59c1.35-1.35,3.17-2.08,5.01-2.08.87,0,1.75.16,2.58.49,13.36,5.21,22.75,20.03,26.88,27.73.5.94.77,1.95.83,2.96,5,.18,9.01,4.29,9.01,9.33v6.01h15.89v-6.01c0-5.04,4.01-9.15,9.01-9.33.06-1.01.33-2.02.83-2.96,4.13-7.7,13.52-22.52,26.88-27.73.84-.33,1.72-.49,2.58-.49,1.85,0,3.66.72,5.01,2.08l2.59,2.59c3.36,3.36,2.53,9.02-1.67,11.26-2.88,1.53-6.17,3.48-9.39,5.81,4.01.67,7.62,4.14,10.35,9.43h30.45c-.08-.25-.16-.49-.24-.74-.04-.13-.08-.26-.12-.38-.17-.51-.35-1.02-.53-1.53-.04-.12-.09-.24-.13-.37-.14-.38-.28-.77-.42-1.15-.07-.18-.14-.37-.21-.55-.12-.32-.24-.63-.37-.95-.08-.2-.16-.4-.24-.6-.12-.3-.24-.59-.36-.89-.09-.2-.17-.41-.26-.61-.12-.29-.25-.58-.37-.86-.09-.2-.18-.41-.27-.61-.13-.29-.26-.57-.39-.85-.09-.2-.18-.4-.28-.59-.14-.29-.28-.58-.42-.87-.09-.19-.18-.37-.27-.56-.15-.31-.31-.62-.47-.92-.08-.16-.16-.33-.25-.49-.2-.39-.41-.77-.61-1.15-.04-.08-.08-.16-.13-.24-.25-.46-.5-.92-.76-1.37-.08-.13-.15-.26-.23-.4-.18-.32-.37-.64-.56-.96-.1-.17-.2-.34-.3-.5-.17-.28-.34-.56-.51-.83-.11-.18-.22-.36-.34-.54-.16-.26-.33-.52-.5-.78-.12-.18-.24-.36-.36-.55-.17-.25-.33-.51-.5-.76-.12-.18-.24-.36-.36-.54-.17-.25-.35-.51-.52-.76-.12-.17-.24-.35-.37-.52-.18-.26-.37-.52-.56-.77-.12-.16-.23-.32-.35-.48-.21-.28-.41-.56-.62-.83-.1-.13-.2-.27-.31-.41-.31-.4-.62-.8-.93-1.19,0,0-.01-.02-.02-.02-.32-.4-.64-.8-.97-1.2-.1-.13-.21-.25-.32-.38-.22-.27-.45-.54-.68-.8-.13-.15-.26-.3-.39-.45-.21-.24-.42-.48-.62-.71-.14-.16-.28-.31-.42-.47-.2-.23-.41-.45-.62-.67-.15-.16-.29-.31-.44-.47-.21-.22-.41-.44-.62-.66-.15-.15-.3-.31-.45-.46-.21-.22-.43-.43-.64-.65-.15-.15-.29-.3-.44-.44-.23-.22-.46-.45-.69-.67-.14-.13-.28-.27-.42-.4-.26-.25-.53-.5-.79-.74-.11-.1-.22-.2-.33-.31-.38-.35-.76-.69-1.14-1.03-.05-.05-.1-.09-.16-.14-.33-.29-.66-.58-1-.87-.13-.11-.27-.22-.4-.34-.26-.22-.51-.43-.77-.65-.16-.13-.31-.25-.47-.38-.24-.19-.48-.39-.73-.58-.17-.13-.33-.26-.5-.39-.24-.19-.48-.37-.72-.55-.17-.13-.34-.26-.51-.39-.24-.18-.48-.36-.73-.54-.17-.13-.34-.25-.52-.38-.25-.18-.5-.36-.75-.53-.17-.12-.34-.24-.51-.36-.27-.18-.53-.36-.8-.55-.16-.11-.31-.21-.47-.32-.32-.21-.64-.42-.96-.63-.11-.07-.22-.14-.32-.21-.43-.28-.87-.55-1.3-.82-.1-.06-.2-.12-.31-.18-.34-.2-.67-.41-1.01-.61-.16-.1-.32-.19-.49-.28-.28-.16-.56-.33-.85-.49-.18-.1-.36-.2-.55-.31-.27-.15-.54-.3-.81-.44-.19-.1-.38-.2-.57-.31-.27-.14-.53-.28-.8-.42-.19-.1-.39-.2-.58-.3-.14-.07-.29-.14-.43-.22-1.52-.75-3.15-1.1-4.76-1.1-3.42,0-6.74,1.6-8.66,4.51-.06.09-.13.19-.19.28-.07.11-.15.22-.23.33-.16.23-.33.46-.49.69-.07.09-.13.18-.2.27-.23.31-.47.62-.72.92-.04.05-.08.09-.12.14-.21.26-.42.51-.64.76-.08.1-.17.19-.26.29-.18.2-.36.4-.55.6-.09.1-.18.2-.28.29-.2.21-.4.41-.61.62-.08.07-.15.15-.22.22-.28.27-.57.54-.86.8-.06.05-.12.11-.18.16-.23.21-.47.41-.71.62-.1.09-.2.17-.31.25-.21.17-.42.34-.63.51-.11.08-.21.17-.32.25-.24.18-.48.36-.72.54-.08.06-.16.12-.24.17-.32.23-.65.45-.98.67-.08.05-.16.1-.24.16-.26.16-.51.33-.77.48-.12.07-.23.14-.35.21-.24.14-.47.28-.71.41-.12.07-.24.13-.35.2-.28.15-.56.3-.84.44-.08.04-.15.08-.23.12-.36.18-.72.35-1.09.52-.1.05-.2.09-.3.13-.27.12-.55.24-.82.36-.13.05-.26.11-.39.16-.26.1-.52.2-.78.3-.13.05-.25.1-.38.14-.32.12-.64.23-.97.33-.07.02-.13.04-.2.07-.39.12-.78.24-1.18.35-.11.03-.23.06-.34.09-.29.08-.58.15-.87.22-.14.03-.28.07-.42.1-.28.06-.56.13-.85.18-.13.03-.26.06-.4.08-.37.07-.74.14-1.11.2-.04,0-.09.02-.13.02-.41.07-.83.12-1.25.17-.13.02-.25.03-.38.04-.3.03-.6.06-.9.09-.15.01-.3.02-.45.03-.3.02-.6.04-.9.05-.14,0-.27.01-.41.02-.43.02-.86.03-1.29.03h0c-12.15,0-22.79-6.03-28.77-15.09-1.92-2.91-5.24-4.51-8.66-4.51h0Z"/><path class="cls-1" d="m97.44,146.01h-29.47c-.59,2.92-1.05,5.91-1.36,8.95v17.72c.8,6.2,2.45,12.74,4.43,18.86h34.5c-5.79-5.38-9.81-17.12-9.81-30.74l12.71-4.24-11.61-7.74c.18-.96.39-1.91.61-2.83h0Z"/><path class="cls-1" d="m137.57,146.01h-9.65c1.09,4.47,1.7,9.49,1.7,14.8,0,13.62-4.02,25.35-9.81,30.74h17.76v-45.54h0Z"/><path class="cls-1" d="m49.15,174.07c-7.59,0-13.77,7.13-13.77,15.89s6.18,15.89,13.77,15.89c2.34,0,4.54-.68,6.47-1.87-.73-3.58-1.29-7.26-1.66-11.05-.41-.76-.85-1.49-1.32-2.18-1.99-2.93-4.55-5.39-7.73-7.14.93-.4,1.9-.58,2.87-.58,1.99,0,3.98.76,5.66,1.95-.04-1.27-.07-2.55-.07-3.85,0-2.09.06-4.16.16-6.22-1.38-.54-2.86-.83-4.39-.83h0Z"/><path class="cls-1" d="m162.98,164.54h-15.89v27.18c0,5.15-4.19,9.35-9.35,9.35h-63.22c.43,1.06.86,2.1,1.29,3.08,1.61,3.7,5.41,5.99,9.48,5.99.87,0,1.76-.11,2.64-.33,15.58-3.91,32.5-6.5,50.29-7.51,1,7.35,8.14,13.06,16.82,13.06s15.82-5.7,16.82-13.06c17.78,1.01,34.7,3.6,50.29,7.51.88.22,1.77.33,2.64.33,4.07,0,7.87-2.29,9.48-5.99.14-.33.28-.65.43-.99.02-.05.05-.11.07-.16.12-.27.23-.55.35-.83.03-.08.07-.16.1-.24.11-.28.23-.55.34-.83,0-.01,0-.02.01-.03h-63.23c-5.16,0-9.35-4.19-9.35-9.35v-27.18h0Z"/><path class="cls-1" d="m260.92,174.07c-1.54,0-3.01.3-4.39.83.06,1.11.1,2.22.13,3.33.02.96.03,1.92.03,2.89,0,.6-.02,1.19-.03,1.78,1.1-.3,2.23-.45,3.37-.45,1.76,0,3.51.37,5.13,1.14-2.82,1.45-5.95,2.62-8.66,4.25-.31,5.59-1,10.97-2.05,16.12,1.93,1.19,4.13,1.87,6.47,1.87,7.59,0,13.77-7.13,13.77-15.89s-6.18-15.89-13.77-15.89h0Z"/></g></svg>