<?xml version="1.0" encoding="UTF-8"?><svg id="Camada_2" xmlns="http://www.w3.org/2000/svg" viewBox="0 0 619.68 300.19"><defs><style>.cls-1{fill:#fff;stroke-width:0px;}</style></defs><g id="Camada_1-2"><path class="cls-1" d="m319.45,163.49c0-12.38,2.19-22.96,6.56-31.75,3.58-7.18,8.45-13.28,14.57-18.33v30.28h-16.15l-2.18,15.78h18.33v11.53h20.15v-75.15h-60.22v17.48h21.64c-2.07,1.7-4.11,3.64-6.1,5.83-5.1,5.58-9.23,12.38-12.38,20.4-3.16,8.01-4.73,16.59-4.73,25.74,0,1.86.12,3.76.36,5.71h20.4c-.16-3.4-.24-5.91-.24-7.53Z"/><path class="cls-1" d="m396.72,167.8c5.54,3.28,12,4.92,19.36,4.92,3.89,0,7.73-.45,11.53-1.34l-.97-17.6c-2.59.65-5.02.97-7.28.97-6.07,0-10.85-1.8-14.33-5.4-3.48-3.6-5.22-8.6-5.22-14.99,0-7.2,1.8-12.52,5.4-15.96,3.6-3.44,8.4-5.16,14.39-5.16,2.35,0,4.41.24,6.19.73l1.58-17.6c-3.24-.81-6.68-1.21-10.32-1.21-8.5,0-15.58,1.88-21.25,5.65-5.67,3.76-9.81,8.58-12.44,14.45-2.63,5.87-3.95,12.08-3.95,18.64,0,7.61,1.5,14.35,4.49,20.21,2.99,5.87,7.26,10.44,12.81,13.72Z"/><path class="cls-1" d="m455.78,143.7l-2.18,15.78h18.33v11.53h20.15v-75.15h-60.22v17.48h21.64c-2.07,1.7-4.11,3.64-6.1,5.83-5.1,5.58-9.23,12.38-12.38,20.4-3.16,8.01-4.73,16.59-4.73,25.74,0,1.86.12,3.76.36,5.71h20.4c-.16-3.4-.24-5.91-.24-7.53,0-12.38,2.19-22.96,6.56-31.75,3.58-7.18,8.45-13.28,14.57-18.33v30.28h-16.15Z"/><path class="cls-1" d="m548.96,132.41c3.11-4.21,4.67-8.98,4.67-14.33s-1.09-9.61-3.28-12.81c-2.19-3.2-5.69-5.54-10.5-7.04-4.82-1.5-11.31-2.25-19.49-2.25h-22.95v75.03h20.15v-59.25h2.67c4.86,0,8.26.83,10.2,2.49,1.94,1.66,2.91,4.27,2.91,7.83s-1.05,6.23-3.16,8.5c-2.11,2.27-5.22,3.72-9.35,4.37v16.15c3.89,5.42,8.72,10.18,14.51,14.27,5.79,4.09,11.11,6.13,15.97,6.13l2.31-19.3c-2.83-.73-5.63-1.82-8.38-3.28-2.75-1.46-5.87-3.56-9.35-6.31,5.58-2.59,9.93-5.99,13.05-10.2Z"/><path class="cls-1" d="m559.46,95.86v17.48h21.64c-2.07,1.7-4.11,3.64-6.1,5.83-5.1,5.58-9.23,12.38-12.38,20.4-3.16,8.01-4.73,16.59-4.73,25.74,0,1.86.12,3.76.36,5.71h20.4c-.16-3.4-.24-5.91-.24-7.53,0-12.38,2.19-22.96,6.56-31.75,3.58-7.18,8.45-13.28,14.57-18.33v30.28h-16.15l-2.18,15.78h18.33v11.53h20.15v-75.15h-60.22Z"/><path class="cls-1" d="m352.35,204.27c-7.53-5.62-17-8.44-28.41-8.44h-24.04v75.03h23.92c8.17,0,15.26-1.54,21.25-4.61,5.99-3.07,10.58-7.51,13.78-13.29,3.2-5.79,4.8-12.64,4.8-20.58,0-13.11-3.76-22.48-11.29-28.11Zm-13.6,44.92c-3,3.76-7.28,5.65-12.87,5.65h-5.83v-43.22h6.19c6.15,0,10.52,1.82,13.11,5.46,2.59,3.64,3.89,8.78,3.89,15.42,0,7.37-1.5,12.93-4.49,16.69Z"/><path class="cls-1" d="m421.97,198.14c-5.54-2.51-11.59-3.76-18.15-3.76-7.28,0-13.64,1.58-19.06,4.73-5.42,3.16-9.61,7.67-12.57,13.54-2.96,5.87-4.43,12.77-4.43,20.7,0,9.15,1.74,16.59,5.22,22.34,3.48,5.75,7.99,9.9,13.54,12.44,5.54,2.55,11.59,3.82,18.15,3.82,7.2,0,13.54-1.58,19-4.73,5.46-3.16,9.67-7.69,12.63-13.6,2.95-5.91,4.43-12.83,4.43-20.76,0-9.15-1.74-16.59-5.22-22.34-3.48-5.75-7.99-9.87-13.54-12.38Zm-5.65,50.38c-2.67,3.64-6.72,5.46-12.14,5.46s-9.35-1.86-12.02-5.58c-2.67-3.72-4.01-8.9-4.01-15.54s1.34-11.41,4.01-15.05c2.67-3.64,6.72-5.46,12.14-5.46,3.56,0,6.54.87,8.92,2.61,2.39,1.74,4.17,4.17,5.34,7.28,1.17,3.12,1.76,6.86,1.76,11.23,0,6.39-1.34,11.41-4.01,15.05Z"/><path class="cls-1" d="m465.98,246.34c0,3.08-.59,5.2-1.76,6.37-1.17,1.17-2.93,1.76-5.28,1.76-.89,0-1.94-.24-3.16-.73l.12,17c2.51.89,5.42,1.34,8.74,1.34,4.94,0,8.94-.77,12.02-2.31,3.07-1.54,5.42-4.19,7.04-7.95,1.62-3.76,2.43-9,2.43-15.72v-50.26h-20.15v50.5Z"/><path class="cls-1" d="m532.51,239.78c0,5.67-.91,9.51-2.73,11.53-1.82,2.02-4.47,3.03-7.95,3.03s-6.19-1.21-7.89-3.64c-1.7-2.43-2.55-6.11-2.55-11.05v-43.83h-19.91v44.92c0,9.06,2.25,16.59,6.74,22.58,4.49,5.99,12,8.98,22.52,8.98,11.98,0,20.29-2.97,24.95-8.92,4.65-5.95,6.98-13.98,6.98-24.1v-43.46h-20.15v43.95Z"/><path class="cls-1" d="m38.63,77.95c-12.65-.2-24.16-9.66-27.75-22.06-3.85-13.25,1.9-27.94,14.23-35.58,4.7,15.17,7.45,22.65,8.24,22.45,1.06-.27,5.77-14.75-.22-42.75,30.35,9.15,39.56,33.54,35.56,52.07-2.51,11.67-14.18,26.12-30.07,25.88Z"/><path class="cls-1" d="m43.99,47.73l2.22,5.27c.44,1.04,4.62,10.49,16.2,20.65,3.06,2.68,5.95,4.82,8.56,6.51l.5-.38c.17-.13.33-.25.5-.37,4.18-3.05,8.51-4.48,12.09-4.48,4.99,0,8.53,2.79,8.14,7.91l-.07.94c13.74-7.08,29.07-11.05,45.24-11.05,11.06,0,21.72,1.85,31.75,5.28,1.67.57,3.33,1.19,4.96,1.85,5.72,2.31,11.22,5.14,16.44,8.44,1.49.94,2.96,1.93,4.4,2.94.72.51,1.44,1.03,2.15,1.56,1.42,1.06,2.82,2.15,4.19,3.28,1.37,1.13,2.72,2.29,4.03,3.49,2.64,2.4,5.17,4.93,7.58,7.59,1.21,1.33,2.39,2.69,3.54,4.08,1.72,2.09,3.38,4.24,4.96,6.46,1.06,1.48,2.08,2.99,3.07,4.52,1.98,3.07,3.84,6.25,5.55,9.53.86,1.64,1.68,3.31,2.47,5,1.18,2.53,2.28,5.12,3.29,7.76.34.88.67,1.76.98,2.65,1.59,4.45,2.95,9.03,4.04,13.72.88,3.76,1.59,7.58,2.13,11.47.21,1.5.38,3.01.54,4.52,1.65-.46,3.37-.7,5.14-.7,11.65,0,21.13,10.48,21.13,23.35s-9.48,23.35-21.13,23.35c-2.97,0-5.81-.69-8.38-1.92-.28,1.03-.57,2.06-.87,3.07-1.04,3.44-2.24,6.77-3.59,9.99-2.36,5.64-5.19,10.93-8.43,15.86-.46.7-.93,1.4-1.41,2.09-1.92,2.76-3.97,5.4-6.15,7.91-4.35,5.03-9.2,9.57-14.47,13.58-3.3,2.51-6.76,4.82-10.37,6.91-2.89,1.68-5.87,3.22-8.94,4.62-1.53.7-3.09,1.37-4.67,2-13.4,5.36-28.28,8.19-43.94,8.19-49,0-90.29-27.64-102.85-74.22-2.57,1.23-5.4,1.92-8.38,1.92-11.65,0-21.13-10.48-21.13-23.35s9.48-23.35,21.13-23.35c1.77,0,3.49.25,5.14.7,2.52-24.48,11.87-46.67,25.9-64.23l-3.31-.65c-8.64-1.69-7.61-12.71,2.08-20.41.16-.13.33-.26.49-.38l.66-.5c-2.15-1.58-4.4-3.42-6.72-5.55-11.89-10.93-15.59-20.47-16.21-22.27l-.59-1.7,10.4-13.47m48.68,176.28c-4.82,2.65-7.11,8.45-5.16,13.73,1.25,3.59,4.05,6.45,7.26,8.36,3.65,2.15,7.87,3.21,12.1,3.21.16,0,.32,0,.47,0,2.99,5.88,9.56,9.54,15.93,10.42,1.29.18,2.58.27,3.88.27,3.51,0,6.99-.69,10.24-2.14,3.22,1.41,6.72,2.12,10.21,2.12,5.4,0,10.78-1.7,15.1-5.14,1.89-1.53,3.52-3.48,4.62-5.7.14,0,.28,0,.42,0,5.53,0,11.08-1.83,15.2-5.57,2.64-2.46,4.58-5.89,4.61-9.55.05-2.98-1.3-6.02-3.51-7.92,2,3.92,1.57,8.2-1.24,11.22-2.99,3.19-7.36,4.59-11.71,4.59-1.92,0-3.83-.27-5.61-.78l-3.12-.91-1.5,3.68c-1.51,3.52-5.39,5.5-9.05,6.16-1.07.2-2.18.3-3.3.3-3.02,0-6.1-.72-8.56-2.25l-2.5-1.57-2.63,1.57c-2.33,1.43-5.42,2.19-8.53,2.19-5.07,0-10.2-2.02-12.23-6.44l-1.57-3.85-3.23.96c-1.71.49-3.53.74-5.36.74-3.5,0-7.03-.93-9.86-2.94-5.18-3.71-5.29-9.95-1.33-14.76M45.27,37.88l-5.24,6.79-10.4,13.47-1.65,2.13.88,2.55.58,1.7c.97,2.81,5.1,12.87,17.55,24.32.77.71,1.55,1.4,2.33,2.07-5,5.37-7.31,11.8-5.98,17.25.78,3.2,2.7,5.71,5.48,7.27-11.51,16.32-19,35.38-21.9,55.75-.27,0-.53-.01-.8-.01-14.41,0-26.13,12.72-26.13,28.35s11.72,28.35,26.13,28.35c1.71,0,3.4-.18,5.05-.53,6.9,21.44,20.03,39.43,38.2,52.27,19.03,13.45,42.54,20.56,67.97,20.56,16.22,0,31.63-2.88,45.8-8.55,1.64-.66,3.29-1.36,4.89-2.09,3.21-1.46,6.36-3.09,9.37-4.84,3.79-2.2,7.45-4.64,10.89-7.26,5.57-4.24,10.69-9.05,15.23-14.29,2.29-2.65,4.47-5.45,6.47-8.33.5-.72,1.01-1.46,1.49-2.2,3.43-5.22,6.41-10.83,8.86-16.67,1.17-2.79,2.24-5.68,3.18-8.61,1.65.35,3.34.53,5.05.53,14.41,0,26.13-12.72,26.13-28.35s-11.72-28.35-26.13-28.35c-.26,0-.53,0-.79.01-.55-3.84-1.27-7.69-2.15-11.44-1.13-4.83-2.54-9.63-4.21-14.27-.33-.91-.67-1.84-1.02-2.76-1.05-2.72-2.2-5.44-3.42-8.07-.81-1.75-1.68-3.5-2.57-5.2-1.77-3.39-3.72-6.74-5.78-9.93-1.03-1.6-2.11-3.18-3.21-4.72-1.64-2.3-3.39-4.57-5.18-6.74-1.19-1.45-2.44-2.88-3.69-4.26-2.52-2.77-5.18-5.43-7.92-7.92-1.37-1.25-2.79-2.47-4.22-3.65-1.43-1.18-2.9-2.33-4.38-3.43-.74-.55-1.49-1.1-2.25-1.63-1.51-1.06-3.06-2.1-4.61-3.08-5.5-3.48-11.3-6.46-17.24-8.85-1.72-.69-3.47-1.35-5.21-1.94-10.76-3.68-21.99-5.55-33.37-5.55-14.37,0-28.28,2.92-41.44,8.7-.46-.91-1.05-1.74-1.76-2.5-2.39-2.58-5.98-4-10.12-4-4.24,0-8.83,1.46-13.11,4.14-1.77-1.29-3.53-2.69-5.23-4.18-10.92-9.59-14.73-18.46-14.89-18.83l-2.22-5.27-3.33-7.91h0Z"/><path class="cls-1" d="m165.84,153.37h-10.14v47.84h18.66c-6.09-5.66-10.31-17.98-10.31-32.29l13.35-4.45-12.2-8.13c.19-1.01.41-2,.64-2.97h0Z"/><path class="cls-1" d="m228.81,153.37h-30.95c1.14,4.7,1.79,9.97,1.79,15.55,0,14.31-4.22,26.63-10.31,32.29h36.25s.02-.07.03-.1c.26-.8.51-1.61.76-2.42.04-.12.07-.24.11-.36.09-.29.17-.58.26-.87.04-.14.08-.27.12-.41.08-.29.17-.59.25-.88.03-.12.07-.24.1-.36.11-.41.23-.82.34-1.23,0,0,0-.02,0-.03.11-.4.21-.8.32-1.2.03-.13.07-.26.1-.39.07-.29.14-.57.22-.86.04-.14.07-.29.11-.43.07-.29.14-.58.21-.86.03-.13.06-.26.09-.39.09-.41.19-.82.28-1.24,0-.01,0-.02,0-.03.09-.4.17-.8.25-1.2.03-.13.05-.26.08-.39.06-.29.11-.57.17-.86.03-.15.06-.29.08-.44.05-.28.1-.57.16-.85.02-.13.05-.26.07-.4.07-.41.14-.81.2-1.22,0,0,0-.01,0-.02.06-.4.12-.8.18-1.2.02-.13.04-.26.05-.39.04-.26.07-.52.1-.78v-18.64c-.01-.12-.02-.24-.04-.36-.03-.25-.05-.49-.08-.74-.04-.37-.09-.74-.13-1.11-.03-.23-.06-.45-.08-.68-.06-.42-.12-.83-.18-1.25-.03-.17-.05-.35-.07-.52-.09-.59-.18-1.17-.28-1.75-.02-.09-.03-.19-.05-.28-.08-.49-.17-.97-.26-1.46-.04-.2-.08-.4-.12-.61-.04-.22-.09-.44-.13-.67h0Z"/><path class="cls-1" d="m98.04,89.92c-1.72,0-3.47.39-5.08,1.2-20.9,10.5-36.99,28.86-44.46,52.26h31.98c2.86-5.55,6.65-9.2,10.87-9.91-3.39-2.44-6.84-4.48-9.86-6.09-4.41-2.35-5.29-8.29-1.76-11.83l2.73-2.73c1.42-1.42,3.33-2.18,5.27-2.18.91,0,1.83.17,2.72.51,14.03,5.47,23.9,21.04,28.23,29.13.53.98.81,2.05.87,3.11,5.25.19,9.47,4.51,9.47,9.8v6.31h16.69v-6.31c0-5.3,4.22-9.61,9.47-9.8.06-1.06.34-2.13.87-3.11,4.34-8.09,14.2-23.66,28.23-29.13.88-.34,1.8-.51,2.72-.51,1.94,0,3.84.76,5.27,2.18l2.73,2.73c3.53,3.53,2.65,9.48-1.76,11.83-3.02,1.61-6.48,3.66-9.87,6.1,4.21.71,8.01,4.35,10.87,9.91h31.98c-.08-.26-.16-.52-.25-.77-.04-.13-.09-.27-.13-.4-.18-.54-.36-1.07-.55-1.61-.05-.13-.09-.26-.14-.38-.15-.4-.29-.81-.44-1.2-.07-.19-.15-.38-.22-.58-.13-.33-.26-.67-.39-1-.08-.21-.17-.42-.25-.63-.13-.31-.25-.62-.38-.93-.09-.21-.18-.43-.27-.64-.13-.3-.26-.61-.39-.91-.09-.21-.19-.43-.28-.64-.14-.3-.27-.6-.41-.9-.1-.21-.19-.42-.29-.62-.14-.3-.29-.61-.44-.91-.1-.2-.19-.39-.29-.59-.16-.32-.32-.65-.49-.97-.09-.17-.17-.34-.26-.51-.21-.41-.43-.81-.64-1.21-.04-.08-.09-.17-.13-.25-.26-.48-.53-.96-.8-1.44-.08-.14-.16-.28-.24-.42-.19-.34-.39-.67-.58-1.01-.11-.18-.21-.35-.32-.53-.18-.29-.35-.59-.53-.88-.12-.19-.24-.38-.35-.56-.17-.28-.35-.55-.52-.82-.12-.19-.25-.38-.37-.57-.17-.27-.35-.53-.53-.8-.13-.19-.25-.38-.38-.57-.18-.27-.36-.53-.55-.79-.13-.18-.26-.37-.38-.55-.19-.27-.39-.54-.58-.81-.12-.17-.25-.34-.37-.51-.22-.29-.44-.58-.66-.87-.11-.14-.21-.28-.32-.43-.32-.42-.65-.84-.98-1.25,0,0-.01-.02-.02-.02-.34-.42-.68-.84-1.02-1.26-.11-.13-.22-.26-.33-.4-.24-.28-.47-.56-.71-.84-.14-.16-.27-.31-.41-.47-.22-.25-.44-.5-.66-.75-.15-.16-.29-.33-.44-.49-.21-.24-.43-.47-.65-.71-.15-.16-.31-.33-.46-.49-.22-.23-.43-.46-.65-.69-.16-.16-.31-.32-.47-.49-.22-.23-.45-.46-.67-.68-.15-.16-.31-.31-.46-.46-.24-.24-.48-.47-.72-.7-.15-.14-.29-.28-.44-.42-.28-.26-.55-.52-.83-.78-.12-.11-.23-.22-.34-.32-.4-.36-.79-.72-1.2-1.08-.05-.05-.11-.1-.16-.14-.35-.31-.7-.61-1.05-.91-.14-.12-.28-.24-.42-.35-.27-.23-.54-.45-.81-.68-.16-.13-.33-.27-.49-.4-.25-.2-.51-.41-.76-.61-.17-.14-.35-.27-.52-.41-.25-.2-.5-.39-.76-.58-.18-.14-.36-.27-.54-.41-.25-.19-.51-.38-.76-.57-.18-.13-.36-.26-.54-.39-.26-.19-.52-.37-.79-.56-.18-.13-.35-.25-.53-.37-.28-.19-.56-.38-.84-.57-.16-.11-.33-.22-.49-.33-.33-.22-.67-.44-1.01-.66-.11-.07-.23-.15-.34-.22-.45-.29-.91-.58-1.37-.86-.11-.07-.22-.13-.32-.19-.35-.22-.71-.43-1.06-.64-.17-.1-.34-.2-.51-.3-.3-.17-.59-.34-.89-.51-.19-.11-.38-.21-.57-.32-.28-.16-.56-.31-.85-.47-.2-.11-.4-.21-.6-.32-.28-.15-.56-.3-.84-.44-.2-.1-.41-.21-.61-.31-.15-.08-.3-.15-.45-.23-1.59-.78-3.31-1.16-5-1.16-3.59,0-7.08,1.68-9.09,4.74-.07.1-.13.2-.2.29-.08.12-.16.23-.24.35-.17.24-.34.49-.52.73-.07.09-.14.19-.21.28-.25.33-.5.65-.75.97-.04.05-.08.1-.12.15-.22.27-.44.54-.67.8-.09.1-.18.2-.27.3-.19.21-.38.42-.57.63-.1.1-.19.21-.29.31-.21.22-.42.44-.64.65-.08.08-.16.16-.24.23-.29.29-.59.57-.9.84-.06.06-.13.11-.19.17-.25.22-.49.43-.75.65-.11.09-.21.18-.32.27-.22.18-.44.36-.67.53-.11.09-.22.18-.34.26-.25.19-.5.38-.76.56-.08.06-.17.12-.25.18-.34.24-.68.47-1.03.7-.08.06-.17.11-.26.16-.27.17-.54.34-.81.51-.12.07-.25.15-.37.22-.25.15-.5.29-.75.43-.12.07-.25.14-.37.21-.29.16-.59.31-.88.46-.08.04-.16.08-.24.12-.38.19-.76.37-1.14.54-.1.05-.21.09-.31.14-.29.13-.57.25-.87.37-.14.06-.27.11-.41.17-.27.11-.55.21-.82.32-.13.05-.27.1-.4.15-.34.12-.68.24-1.02.35-.07.02-.14.05-.21.07-.41.13-.82.25-1.24.37-.12.03-.24.06-.36.1-.3.08-.61.16-.91.24-.15.04-.29.07-.44.1-.29.07-.59.13-.89.19-.14.03-.28.06-.42.09-.39.07-.77.14-1.17.21-.05,0-.09.02-.14.02-.44.07-.87.13-1.32.18-.13.02-.27.03-.4.04-.32.03-.63.07-.95.09-.16.01-.31.03-.47.04-.31.02-.63.04-.95.06-.14,0-.28.01-.43.02-.45.02-.9.03-1.36.03h0c-12.76,0-23.94-6.34-30.22-15.86-2.01-3.05-5.51-4.74-9.1-4.74h0Z"/><path class="cls-1" d="m76.86,153.37h-30.95c-.62,3.07-1.1,6.2-1.43,9.41v18.62c.84,6.52,2.57,13.39,4.66,19.82h36.25c-6.09-5.66-10.31-17.98-10.31-32.29l13.35-4.45-12.2-8.13c.19-1.01.41-2,.64-2.97h0Z"/><path class="cls-1" d="m119.01,153.37h-10.13c1.14,4.7,1.79,9.97,1.79,15.55,0,14.31-4.22,26.63-10.31,32.29h18.66v-47.84h0Z"/><path class="cls-1" d="m26.13,182.85c-7.98,0-14.46,7.49-14.46,16.69s6.49,16.69,14.46,16.69c2.46,0,4.77-.71,6.8-1.97-.76-3.76-1.35-7.63-1.75-11.61-.43-.79-.89-1.56-1.39-2.29-2.09-3.08-4.77-5.66-8.11-7.5.98-.42,2-.61,3.02-.61,2.09,0,4.18.8,5.95,2.05-.04-1.34-.07-2.68-.07-4.04,0-2.19.06-4.37.17-6.54-1.45-.57-3-.88-4.62-.88h0Z"/><path class="cls-1" d="m145.7,172.83h-16.69v28.55c0,5.41-4.41,9.82-9.82,9.82H52.78c.45,1.11.9,2.2,1.36,3.24,1.69,3.88,5.68,6.29,9.96,6.29.92,0,1.85-.11,2.78-.34,16.37-4.11,34.14-6.83,52.82-7.89,1.05,7.72,8.56,13.72,17.67,13.72s16.62-5.99,17.67-13.72c18.68,1.06,36.45,3.78,52.82,7.89.93.23,1.86.34,2.78.34,4.27,0,8.27-2.41,9.96-6.29.15-.34.3-.69.45-1.04.02-.06.05-.11.07-.17.12-.29.24-.58.37-.87.03-.08.07-.17.1-.25.12-.29.24-.58.36-.88,0-.01,0-.02.01-.03h-66.42c-5.42,0-9.82-4.41-9.82-9.82v-28.55h0Z"/><path class="cls-1" d="m248.58,182.85c-1.61,0-3.17.31-4.62.88.06,1.16.11,2.33.13,3.5.02,1.01.03,2.02.03,3.03,0,.63-.02,1.25-.03,1.87,1.16-.31,2.35-.47,3.54-.47,1.85,0,3.69.39,5.39,1.2-2.97,1.52-6.25,2.75-9.1,4.46-.32,5.87-1.05,11.52-2.15,16.94,2.03,1.25,4.34,1.96,6.8,1.96,7.98,0,14.46-7.49,14.46-16.69s-6.49-16.69-14.46-16.69h0Z"/></g></svg>