<?xml version="1.0" encoding="UTF-8"?><svg id="Camada_2" xmlns="http://www.w3.org/2000/svg" viewBox="0 0 608.82 292.38"><defs><style>.cls-1{stroke-width:0px;}</style></defs><g id="Camada_1-2"><path class="cls-1" d="m241.26,174.5c-1.76,0-3.46.24-5.09.7-.15-1.5-.33-3-.53-4.48-.53-3.85-1.24-7.64-2.11-11.36-1.09-4.65-2.43-9.19-4.01-13.59-.32-.88-.64-1.76-.98-2.63-1-2.61-2.09-5.17-3.26-7.68-.78-1.67-1.59-3.32-2.44-4.95-1.7-3.25-3.53-6.4-5.5-9.44-.98-1.52-2-3.02-3.04-4.48-1.57-2.2-3.21-4.33-4.92-6.4-1.14-1.38-2.31-2.73-3.5-4.04-2.39-2.63-4.9-5.14-7.51-7.51-1.31-1.19-2.64-2.34-4-3.46-1.36-1.12-2.74-2.2-4.15-3.25-.7-.52-1.41-1.04-2.13-1.54-1.43-1.01-2.88-1.98-4.36-2.92-5.17-3.27-10.61-6.07-16.28-8.36-1.62-.65-3.26-1.26-4.91-1.83-9.93-3.4-20.5-5.23-31.45-5.23-16.02,0-31.2,3.93-44.81,10.94l.07-.94c.66-8.7-10.13-10.62-20.03-3.39-.17.12-.33.24-.5.37l-.49.37c-2.58-1.68-5.45-3.8-8.48-6.45-1.46-1.29-2.81-2.56-4.04-3.81,5.36-5.04,9-11.66,10.27-17.57,3.95-18.36-5.17-42.51-35.23-51.57,5.93,27.74,1.27,42.08.22,42.34-.78.2-3.5-7.21-8.16-22.23C7.7,27.68,2.01,42.23,5.82,55.35c3.56,12.28,14.95,21.65,27.49,21.85,1.54.02,3.03-.09,4.48-.33,1.97,2.36,4.32,4.88,7.15,7.49,2.29,2.11,4.53,3.93,6.65,5.49l-.65.5c-.16.12-.33.25-.49.38-9.6,7.62-10.62,18.54-2.06,20.21l3.28.64c-13.9,17.39-23.16,39.37-25.66,63.62-1.63-.45-3.34-.7-5.09-.7-11.54,0-20.93,10.38-20.93,23.13s9.39,23.13,20.93,23.13c2.95,0,5.75-.68,8.3-1.9,12.44,46.14,53.33,73.51,101.87,73.51,15.52,0,30.25-2.8,43.52-8.11,1.56-.63,3.1-1.28,4.62-1.98,3.04-1.39,6-2.91,8.86-4.57,3.58-2.07,7-4.36,10.27-6.84,5.22-3.98,10.03-8.47,14.34-13.45,2.16-2.49,4.19-5.1,6.09-7.83.48-.68.94-1.37,1.4-2.07,3.21-4.88,6.01-10.12,8.35-15.7,1.34-3.19,2.53-6.49,3.56-9.9.3-1,.59-2.02.86-3.04,2.55,1.22,5.35,1.9,8.3,1.9,11.54,0,20.93-10.38,20.93-23.13s-9.39-23.13-20.93-23.13ZM20.93,214.16c-7.9,0-14.32-7.41-14.32-16.53s6.43-16.53,14.32-16.53c1.6,0,3.14.31,4.57.87-.11,2.14-.17,4.3-.17,6.47,0,1.35.03,2.68.07,4-2.61-1.84-5.91-2.7-8.88-1.43,3.31,1.82,5.96,4.38,8.04,7.43.5.72.95,1.48,1.38,2.27.39,3.94.97,7.77,1.73,11.49-2.01,1.24-4.3,1.95-6.74,1.95Zm66.19-123.91c4.93-2.48,11.09-.97,14.04,3.51,6.22,9.43,17.29,15.71,29.93,15.71h0c.45,0,.9-.01,1.35-.03.14,0,.28-.01.42-.02.31-.01.63-.03.94-.06.15-.01.31-.02.46-.04.31-.03.63-.06.94-.09.13-.01.26-.03.4-.04.44-.05.87-.11,1.3-.18.05,0,.09-.02.14-.02.39-.06.77-.13,1.15-.2.14-.03.28-.06.41-.08.29-.06.59-.12.88-.19.15-.03.29-.07.44-.1.3-.07.6-.15.9-.23.12-.03.24-.06.36-.1.41-.12.82-.24,1.23-.37.07-.02.14-.05.2-.07.34-.11.67-.23,1.01-.35.13-.05.27-.1.4-.15.27-.1.54-.21.81-.31.14-.05.27-.11.41-.16.29-.12.57-.24.86-.37.1-.05.21-.09.31-.14.38-.17.76-.35,1.13-.54.08-.04.16-.08.24-.12.29-.15.59-.3.88-.46.12-.07.25-.14.37-.2.25-.14.5-.28.74-.43.12-.07.24-.14.36-.22.27-.16.54-.33.8-.5.08-.05.17-.11.25-.16.34-.23.68-.46,1.02-.7.08-.06.16-.12.25-.18.25-.18.5-.37.75-.56.11-.09.22-.17.33-.26.22-.17.44-.35.66-.53.11-.09.21-.18.32-.26.25-.21.5-.42.74-.64.06-.06.13-.11.19-.17.3-.27.6-.55.89-.83.08-.08.16-.15.23-.23.21-.21.43-.43.63-.64.1-.1.19-.2.29-.31.19-.21.38-.41.57-.62.09-.1.18-.2.27-.3.23-.26.45-.52.67-.79.04-.05.08-.1.12-.14.26-.32.5-.64.75-.96.07-.09.14-.19.2-.28.17-.24.35-.48.51-.72.08-.11.16-.23.23-.34.07-.1.13-.19.2-.29,2.93-4.45,9.05-5.96,13.96-3.54.15.07.3.15.45.22.2.1.4.21.6.31.28.14.56.29.84.44.2.11.4.21.59.32.28.15.56.31.84.46.19.11.38.21.57.32.3.17.59.34.88.51.17.1.34.19.51.29.35.21.7.42,1.05.63.11.06.21.13.32.19.45.28.91.56,1.36.85.11.07.23.15.34.22.33.22.67.43,1,.65.16.11.33.22.49.33.28.19.56.38.83.57.18.12.35.25.53.37.26.18.52.37.78.55.18.13.36.26.54.39.25.19.51.37.76.56.18.13.35.27.53.4.25.19.5.38.75.58.17.14.35.27.52.41.25.2.5.4.75.6.16.13.33.26.49.4.27.22.54.45.81.67.14.12.28.23.42.35.35.3.7.6,1.04.9.05.05.11.09.16.14.4.35.79.71,1.19,1.07.11.11.23.21.34.32.28.26.55.51.82.77.14.14.29.28.43.42.24.23.48.46.71.69.15.15.31.31.46.46.22.22.45.45.67.68.16.16.31.32.46.48.22.23.43.45.65.68.15.16.3.32.46.49.22.23.43.47.64.7.15.16.29.32.44.49.22.24.43.49.65.74.14.16.27.31.41.47.24.28.47.55.7.83.11.13.22.26.33.39.34.41.68.83,1.01,1.25,0,0,.01.02.02.02.33.41.65.82.97,1.24.11.14.21.28.32.42.22.29.43.58.65.87.12.17.24.34.37.5.19.27.39.53.58.8.13.18.25.36.38.54.18.26.36.52.54.79.13.19.25.37.38.56.18.26.35.53.52.79.12.19.25.38.37.57.17.27.35.54.52.82.12.19.23.37.35.56.18.29.35.58.53.87.1.17.21.35.32.53.2.33.39.66.58,1,.08.14.16.27.24.41.27.47.53.95.79,1.43.04.08.09.16.13.25.21.4.43.8.64,1.2.09.17.17.34.26.51.16.32.33.64.48.96.1.19.19.39.28.58.15.3.29.6.43.9.1.21.19.41.29.62.14.3.27.59.41.89.09.21.19.42.28.63.13.3.26.6.39.9.09.21.18.42.27.63.13.31.25.62.38.92.08.21.17.41.25.62.13.33.26.66.38.99.07.19.15.38.22.57.15.4.29.79.44,1.19.05.13.09.25.14.38.19.53.37,1.06.55,1.59.04.13.09.27.13.4.08.25.17.51.25.77h-31.68c-2.84-5.5-6.6-9.11-10.77-9.81,3.36-2.42,6.78-4.45,9.77-6.04,4.37-2.32,5.24-8.21,1.74-11.71l-2.7-2.7c-2.07-2.07-5.18-2.72-7.91-1.65-13.9,5.42-23.67,20.84-27.96,28.85-.52.98-.8,2.03-.86,3.08-5.2.19-9.38,4.46-9.38,9.71v6.25h-16.54v-6.25c0-5.24-4.18-9.52-9.38-9.71-.06-1.05-.34-2.11-.86-3.08-4.3-8.01-14.07-23.43-27.97-28.85-2.73-1.07-5.83-.42-7.91,1.65l-2.7,2.7c-3.5,3.5-2.63,9.39,1.74,11.71,2.99,1.59,6.41,3.62,9.77,6.03-4.17.71-7.93,4.32-10.76,9.82h-31.68c7.4-23.17,23.34-41.35,44.03-51.76Zm80.62,109.04h-18.48v-47.38h10.04c-.23.96-.45,1.94-.64,2.94l12.08,8.06-13.22,4.41c0,14.17,4.18,26.38,10.21,31.98Zm-64.86-47.38h10.04v47.38h-18.48c6.03-5.6,10.21-17.81,10.21-31.98,0-5.52-.64-10.75-1.77-15.4Zm-63.79,27.76v-18.44c.33-3.17.8-6.28,1.42-9.32h30.66c-.23.96-.45,1.94-.64,2.94l12.08,8.06-13.22,4.41c0,14.17,4.18,26.38,10.21,31.98h-35.9c-2.06-6.37-3.78-13.17-4.61-19.63Zm137.12,61.58c-4.18,3.8-9.86,5.6-15.47,5.51-1.09,2.2-2.7,4.13-4.57,5.65-7.04,5.61-16.92,6.55-25.06,2.99-4.4,1.97-9.22,2.52-13.98,1.85-6.31-.87-12.82-4.49-15.78-10.32-4.34.08-8.7-.96-12.45-3.17-3.18-1.9-5.95-4.72-7.19-8.28-1.93-5.23.34-10.97,5.12-13.6-3.93,4.77-3.82,10.94,1.31,14.62,4.27,3.03,10.15,3.59,15.08,2.18l3.2-.95,1.56,3.81c3.24,7.07,14.49,7.94,20.56,4.21l2.6-1.55,2.48,1.55c3.34,2.07,7.84,2.65,11.75,1.93,3.63-.65,7.47-2.61,8.97-6.1l1.48-3.65,3.09.9c5.79,1.65,12.89.78,17.16-3.77,2.78-2.99,3.2-7.23,1.22-11.11,2.19,1.89,3.53,4.9,3.48,7.85-.03,3.63-1.95,7.03-4.57,9.46Zm38.64-32.02c-.12.29-.24.58-.36.87-.03.08-.07.16-.1.25-.12.29-.24.58-.36.86-.02.06-.05.11-.07.17-.15.35-.29.69-.44,1.03-2.03,4.67-7.44,7.19-12.61,5.89-16.21-4.07-33.82-6.76-52.32-7.81-1.04,7.65-8.47,13.59-17.5,13.59s-16.46-5.93-17.5-13.59c-18.5,1.05-36.11,3.74-52.32,7.81-5.18,1.3-10.58-1.22-12.61-5.89-.45-1.03-.9-2.11-1.34-3.21h65.78c5.36,0,9.73-4.36,9.73-9.73v-28.28h16.54v28.28c0,5.36,4.36,9.73,9.73,9.73h65.78s0,.02-.01.03Zm8.23-29.55c-.03.26-.07.52-.1.77-.02.13-.03.26-.05.38-.06.39-.12.79-.18,1.18,0,0,0,.01,0,.02-.06.4-.13.8-.2,1.21-.02.13-.05.26-.07.39-.05.28-.1.56-.15.84-.03.14-.05.29-.08.43-.05.28-.11.57-.17.85-.03.13-.05.26-.08.38-.08.4-.16.79-.25,1.19,0,.01,0,.02,0,.03-.09.41-.18.82-.28,1.22-.03.13-.06.26-.09.38-.07.29-.13.57-.2.86-.03.14-.07.29-.11.43-.07.28-.14.57-.21.85-.03.13-.06.26-.1.38-.1.4-.21.79-.31,1.19,0,0,0,.02,0,.03-.11.41-.22.81-.33,1.22-.03.12-.07.24-.1.36-.08.29-.16.58-.25.87-.04.13-.08.27-.12.4-.09.29-.17.58-.26.87-.04.12-.07.24-.11.35-.24.81-.5,1.6-.75,2.4-.01.03-.02.07-.03.1h-35.91c6.03-5.6,10.21-17.81,10.21-31.98,0-5.52-.64-10.75-1.77-15.4h30.65c.04.22.09.44.13.66.04.2.08.4.12.6.09.48.18.96.26,1.44.02.09.03.19.05.28.1.58.19,1.15.28,1.74.03.17.05.34.07.52.06.41.12.82.17,1.24.03.22.06.45.08.67.05.36.09.73.13,1.1.03.24.05.49.08.73.01.12.02.23.04.35v18.46Zm18.17,34.48c-2.43,0-4.72-.7-6.73-1.94,1.09-5.37,1.81-10.96,2.13-16.78,2.82-1.69,6.07-2.91,9.01-4.42-2.76-1.33-5.91-1.51-8.84-.72,0-.62.03-1.23.03-1.85,0-1-.01-2.01-.03-3-.03-1.16-.07-2.32-.13-3.47,1.44-.56,2.97-.87,4.57-.87,7.9,0,14.32,7.41,14.32,16.53s-6.43,16.53-14.32,16.53Z"/><path class="cls-1" d="m311.45,161.93c0-12.27,2.16-22.75,6.49-31.44,3.54-7.12,8.37-13.15,14.43-18.15v30h-15.99l-2.16,15.63h18.16v11.42h19.96v-74.43h-59.64v17.32h21.44c-2.05,1.69-4.07,3.61-6.05,5.77-5.05,5.53-9.14,12.27-12.27,20.2-3.13,7.94-4.69,16.43-4.69,25.49,0,1.84.12,3.73.36,5.65h20.2c-.16-3.37-.24-5.85-.24-7.46Z"/><path class="cls-1" d="m387.98,166.2c5.49,3.25,11.88,4.87,19.18,4.87,3.85,0,7.65-.44,11.42-1.32l-.96-17.44c-2.57.64-4.97.96-7.22.96-6.01,0-10.74-1.78-14.19-5.35-3.45-3.57-5.17-8.52-5.17-14.85,0-7.13,1.78-12.4,5.35-15.81,3.57-3.41,8.32-5.11,14.25-5.11,2.32,0,4.37.24,6.13.72l1.56-17.44c-3.21-.8-6.61-1.2-10.22-1.2-8.42,0-15.43,1.86-21.04,5.59-5.61,3.73-9.72,8.5-12.32,14.31-2.61,5.81-3.91,11.96-3.91,18.46,0,7.54,1.48,14.21,4.45,20.02,2.96,5.81,7.19,10.34,12.69,13.59Z"/><path class="cls-1" d="m446.48,142.33l-2.16,15.63h18.16v11.42h19.96v-74.43h-59.64v17.32h21.44c-2.05,1.69-4.07,3.61-6.05,5.77-5.05,5.53-9.14,12.27-12.26,20.2-3.13,7.94-4.69,16.43-4.69,25.49,0,1.84.12,3.73.36,5.65h20.2c-.16-3.37-.24-5.85-.24-7.46,0-12.27,2.16-22.75,6.49-31.44,3.54-7.12,8.37-13.15,14.43-18.15v30h-15.99Z"/><path class="cls-1" d="m538.77,131.14c3.09-4.17,4.63-8.9,4.63-14.19s-1.08-9.52-3.25-12.69c-2.16-3.17-5.63-5.49-10.4-6.97-4.77-1.48-11.2-2.22-19.3-2.22h-22.73v74.31h19.96v-58.68h2.65c4.81,0,8.18.82,10.1,2.46,1.92,1.64,2.89,4.23,2.89,7.76s-1.04,6.17-3.13,8.42c-2.09,2.25-5.17,3.69-9.26,4.33v15.99c3.85,5.37,8.64,10.08,14.37,14.13,5.73,4.05,11,6.07,15.81,6.07l2.28-19.12c-2.81-.72-5.57-1.8-8.3-3.25-2.73-1.44-5.81-3.53-9.26-6.25,5.53-2.56,9.84-5.93,12.93-10.1Z"/><path class="cls-1" d="m549.17,94.95v17.32h21.44c-2.05,1.69-4.07,3.61-6.05,5.77-5.05,5.53-9.14,12.27-12.27,20.2-3.13,7.94-4.69,16.43-4.69,25.49,0,1.84.12,3.73.36,5.65h20.2c-.16-3.37-.24-5.85-.24-7.46,0-12.27,2.16-22.75,6.49-31.44,3.54-7.12,8.37-13.15,14.43-18.15v30h-15.99l-2.16,15.63h18.16v11.42h19.96v-74.43h-59.64Z"/><path class="cls-1" d="m344.03,202.32c-7.46-5.57-16.83-8.36-28.14-8.36h-23.81v74.31h23.69c8.1,0,15.11-1.52,21.04-4.57,5.93-3.05,10.48-7.43,13.65-13.17,3.17-5.73,4.75-12.52,4.75-20.38,0-12.99-3.73-22.27-11.18-27.84Zm-13.47,44.49c-2.97,3.73-7.22,5.59-12.75,5.59h-5.77v-42.81h6.13c6.09,0,10.42,1.8,12.99,5.41,2.56,3.61,3.85,8.7,3.85,15.27,0,7.3-1.48,12.81-4.45,16.53Z"/><path class="cls-1" d="m412.99,196.25c-5.49-2.48-11.48-3.73-17.98-3.73-7.21,0-13.51,1.56-18.88,4.69-5.37,3.13-9.52,7.6-12.45,13.41-2.93,5.81-4.39,12.65-4.39,20.5,0,9.06,1.72,16.43,5.17,22.12,3.45,5.69,7.92,9.8,13.41,12.33,5.49,2.53,11.48,3.79,17.98,3.79,7.13,0,13.41-1.56,18.82-4.69,5.41-3.13,9.58-7.61,12.51-13.47,2.93-5.85,4.39-12.7,4.39-20.56,0-9.06-1.72-16.43-5.17-22.13-3.45-5.69-7.92-9.78-13.41-12.27Zm-5.59,49.9c-2.65,3.61-6.65,5.41-12.02,5.41s-9.26-1.84-11.9-5.53c-2.65-3.69-3.97-8.82-3.97-15.39s1.32-11.3,3.97-14.91c2.65-3.61,6.65-5.41,12.02-5.41,3.53,0,6.47.86,8.84,2.59,2.36,1.72,4.13,4.13,5.29,7.21,1.16,3.09,1.74,6.79,1.74,11.12,0,6.33-1.32,11.3-3.97,14.91Z"/><path class="cls-1" d="m456.58,243.99c0,3.05-.58,5.15-1.74,6.31-1.16,1.16-2.91,1.74-5.23,1.74-.88,0-1.92-.24-3.13-.72l.12,16.84c2.48.88,5.37,1.32,8.66,1.32,4.89,0,8.86-.76,11.9-2.28,3.05-1.52,5.37-4.15,6.97-7.88,1.6-3.73,2.4-8.92,2.4-15.57v-49.78h-19.96v50.02Z"/><path class="cls-1" d="m522.48,237.5c0,5.61-.9,9.42-2.71,11.42-1.8,2-4.43,3.01-7.88,3.01s-6.13-1.2-7.82-3.61-2.52-6.05-2.52-10.94v-43.41h-19.72v44.49c0,8.98,2.22,16.43,6.67,22.37,4.45,5.93,11.88,8.9,22.31,8.9,11.86,0,20.1-2.95,24.71-8.84,4.61-5.89,6.91-13.85,6.91-23.87v-43.05h-19.96v43.53Z"/></g></svg>